<svg version="1.1" id="Layer_1" xmlns="http://www.w3.org/2000/svg" xmlns:xlink="http://www.w3.org/1999/xlink" x="0px" y="0px"
	 width="100%" viewBox="0 0 500 150" enable-background="new 0 0 500 150" xml:space="preserve">
<path fill="#FDFDFD" opacity="1.000000" stroke="none" 
	d="
M329.000000,151.000000 
	C219.333374,151.000000 110.166748,151.000000 1.000088,151.000000 
	C1.000059,101.000053 1.000059,51.000114 1.000029,1.000128 
	C167.666550,1.000085 334.333099,1.000085 500.999756,1.000043 
	C500.999817,50.999866 500.999817,100.999733 500.999908,150.999802 
	C443.833344,151.000000 386.666656,151.000000 329.000000,151.000000 
M260.959930,63.640968 
	C261.001678,63.184586 261.043427,62.728207 261.973663,62.176300 
	C264.954315,62.208176 267.934967,62.240051 270.983612,63.056019 
	C272.708710,63.673100 274.433807,64.290176 276.875275,65.109871 
	C278.374969,65.880852 280.137604,66.382881 281.289673,67.509377 
	C282.183350,68.383202 284.318512,70.240799 280.204437,71.059952 
	C279.156433,71.411865 278.108398,71.763779 277.060394,72.115692 
	C277.720367,72.348450 278.380341,72.581207 279.947388,72.991905 
	C286.625977,72.229500 293.304565,71.467102 300.438873,70.852242 
	C300.376648,70.378754 300.314423,69.905273 300.418091,68.745354 
	C298.325867,67.477539 296.233643,66.209724 294.199493,64.260078 
	C294.349091,63.567844 294.498657,62.875610 294.648224,62.183372 
	C292.757812,62.238010 290.867371,62.292648 288.118042,62.172581 
	C286.759827,62.081467 285.401611,61.990356 284.043427,61.899242 
	C286.587769,60.870411 289.173431,60.806789 291.632141,60.215282 
	C295.460175,59.294331 299.201935,58.014774 303.778320,56.980000 
	C304.847321,56.999393 305.916321,57.018791 307.237457,57.806786 
	C308.365875,60.529018 308.781067,64.030815 310.751099,65.833092 
	C317.774078,72.258064 326.408295,74.777008 335.875763,73.661186 
	C348.715485,72.147888 356.025269,68.188286 357.932373,52.635326 
	C358.081177,51.421787 358.914124,50.292133 359.425659,49.131302 
	C358.804230,48.984638 358.139679,48.827793 357.451599,48.665394 
	C358.844208,47.011681 360.041351,45.590130 361.238464,44.168575 
	C360.726746,44.143013 360.215027,44.117455 359.703278,44.091892 
	C358.973907,41.277256 358.244537,38.462620 357.505737,35.611729 
	C364.244995,35.611729 370.425507,35.611729 376.887848,35.611729 
	C376.887848,38.081280 376.887848,39.796082 376.887848,41.992615 
	C376.599121,42.227985 375.530609,43.099041 374.179504,44.200470 
	C375.340240,44.729717 376.140228,45.094482 376.931488,45.455276 
	C374.481781,52.021065 375.294556,54.333706 380.369568,55.772831 
	C379.209564,57.372692 378.027344,59.003181 377.085724,60.301842 
	C377.610260,61.813026 378.824341,63.577530 378.637024,65.177979 
	C378.357178,67.568359 377.090363,69.843208 375.947327,72.979622 
	C382.533966,72.979622 387.998596,73.169807 393.430511,72.832855 
	C394.640991,72.757774 396.133575,71.025421 396.786621,69.705101 
	C397.646057,67.967453 397.803741,65.882713 398.459595,63.119492 
	C398.616211,63.313881 398.132050,62.695278 397.628510,62.092850 
	C397.122009,61.486893 396.596252,60.897018 396.078949,60.300098 
	C396.539490,60.355221 397.000061,60.410347 397.460602,60.465473 
	C397.737915,58.994667 398.669464,56.517288 398.192322,56.207142 
	C392.809296,52.708199 397.088776,47.063263 395.075531,42.737183 
	C394.209991,40.877346 395.890198,37.832764 396.516113,34.836823 
	C399.013519,34.836823 402.699249,35.937168 404.070648,34.622787 
	C407.648926,31.193258 411.237427,32.543335 415.246002,33.825993 
	C414.795959,36.668541 416.872711,40.563747 411.383392,41.317104 
	C416.165527,43.170448 414.406799,46.707851 414.749329,49.623066 
	C415.412781,55.269577 414.299652,61.744087 419.076843,65.933212 
	C430.954132,76.348427 445.627319,75.290604 456.222382,70.431587 
	C461.786072,67.880035 463.925171,62.595791 465.641205,57.216125 
	C467.016083,52.905941 464.314667,47.523544 468.765289,45.057278 
	C467.093506,40.841637 465.745300,37.441921 464.794159,35.043530 
	C464.673492,32.882504 465.099152,31.186178 464.444672,30.226408 
	C457.874695,20.591465 449.722015,16.686949 436.976532,18.332802 
	C427.979858,19.494556 419.150177,21.604742 416.401794,32.331440 
	C416.307404,32.699780 415.377197,32.853966 414.666595,32.309784 
	C412.262634,26.567564 405.954498,29.122545 400.859772,25.831423 
	C406.437958,25.831423 410.783722,25.831423 415.129517,25.831423 
	C415.124695,25.573469 415.119873,25.315514 415.115021,25.057560 
	C412.778992,24.903799 410.442963,24.750038 407.040314,24.526072 
	C409.332062,22.639751 410.707733,21.507429 412.574768,19.970699 
	C410.313538,19.523233 408.727417,18.944695 407.138367,18.936420 
	C393.349915,18.864618 379.560669,18.863276 365.772583,18.962358 
	C364.781525,18.969481 363.642120,19.761145 362.841461,20.486000 
	C361.020264,22.134727 359.664154,24.583366 357.579620,25.591572 
	C353.966644,27.339012 351.059631,25.001722 348.562592,22.513979 
	C340.990540,14.970092 315.682068,17.356958 309.651855,26.778860 
	C309.408020,26.459675 309.164185,26.140488 308.716858,25.108950 
	C305.792267,24.097935 302.867676,23.086920 300.021820,22.103117 
	C299.209015,21.153713 298.340057,19.191891 297.314880,19.106548 
	C293.076233,18.753691 288.777313,18.795279 284.531982,19.112638 
	C283.612396,19.181383 282.822906,20.990713 281.116852,21.952707 
	C280.037811,22.164883 278.958771,22.377060 277.879730,22.589235 
	C277.931000,23.026554 277.982239,23.463871 278.033508,23.901190 
	C281.532288,23.901190 285.031097,23.901190 288.529907,24.784685 
	C287.939545,25.240707 287.410370,25.832609 286.748749,26.130327 
	C282.907959,27.858685 279.035980,29.517834 274.304260,30.981457 
	C272.211823,31.496655 270.119415,32.011852 267.190674,32.412392 
	C265.789673,32.331470 264.388672,32.250546 263.141052,31.446033 
	C264.101837,30.685493 265.062653,29.924952 265.912323,29.252371 
	C265.126953,29.184998 264.014771,29.089590 262.844421,28.314146 
	C263.001373,27.880217 263.064240,27.372307 263.335083,27.027931 
	C263.880127,26.334810 264.538452,25.730776 265.913086,24.980104 
	C267.581360,24.382839 269.249634,23.785574 270.917908,23.188307 
	C270.847382,22.791286 270.776886,22.394264 270.706360,21.997242 
	C268.123138,21.997242 265.539917,21.997242 262.880676,21.211357 
	C255.583069,18.809738 248.161621,18.323433 239.998795,19.277287 
	C242.199173,20.425375 243.711426,21.214417 244.288910,21.987452 
	C241.561020,21.987452 238.833130,21.987452 236.105240,21.987452 
	C236.120590,22.419313 236.135925,22.851175 236.151276,23.283037 
	C239.164108,23.892006 242.176956,24.500975 245.052521,25.898800 
	C242.451157,27.769699 239.849792,29.640598 236.483154,32.061871 
	C239.826172,32.377373 241.792892,32.562984 243.759628,32.748596 
	C243.778915,33.049637 243.798218,33.350681 243.817505,33.651722 
	C242.707184,33.880962 241.596848,34.110207 240.486526,34.339451 
	C240.491928,34.609974 240.497345,34.880501 240.502747,35.151024 
	C243.214157,35.478474 245.925568,35.805920 248.636963,36.133366 
	C248.613480,36.466343 248.589996,36.799320 248.566498,37.132298 
	C245.870346,37.355289 243.174194,37.578281 240.150253,37.828384 
	C241.004822,38.846333 241.530869,39.472946 242.569931,40.710678 
	C238.897873,41.486336 235.891754,42.121330 232.885620,42.756325 
	C232.949524,43.160576 233.013428,43.564827 233.077332,43.969078 
	C236.904236,43.969078 240.731140,43.969078 244.558044,43.969078 
	C244.604645,44.250469 244.651245,44.531864 244.697861,44.813255 
	C242.582565,45.672523 240.467285,46.531792 237.768585,47.628048 
	C243.350952,48.451492 243.350952,48.451492 241.546143,53.689453 
	C240.093246,54.154671 238.640350,54.619892 236.607056,54.828220 
	C236.042206,54.541645 235.477356,54.255066 234.830490,53.262718 
	C233.280792,52.884804 231.731094,52.506889 231.204834,52.378551 
	C229.200424,47.099651 227.465652,42.530876 225.535187,37.446751 
	C224.100281,37.446751 221.742004,37.702366 219.483887,37.337753 
	C218.372635,37.158321 216.890411,35.978851 216.623337,34.973663 
	C216.430206,34.246834 217.798065,32.813789 218.779694,32.163605 
	C219.493927,31.690531 220.868500,32.272823 221.665909,31.850586 
	C222.478729,31.420176 223.624832,30.089432 223.440796,29.584566 
	C222.815247,27.868492 221.666626,26.343090 220.594330,24.536953 
	C222.723740,24.072659 223.880753,23.820387 225.620819,23.440987 
	C223.100525,21.672579 221.239029,19.317993 219.165451,19.113445 
	C213.562439,18.560736 207.860733,18.737663 202.215118,18.995762 
	C199.147919,19.135981 197.827682,20.793821 200.390579,23.953138 
	C198.503067,24.114618 196.900055,24.251759 196.102066,24.320028 
	C194.085480,27.151342 192.779251,30.116638 190.521271,31.821175 
	C188.471405,33.368610 185.385605,33.543770 182.756516,34.323910 
	C182.737305,34.902073 182.718094,35.480236 182.698883,36.058399 
	C184.145828,36.536701 185.597458,37.001381 187.038620,37.496502 
	C189.174988,38.230469 191.790405,38.298252 189.363907,41.943569 
	C188.044296,43.925972 188.281311,46.944550 187.710983,50.073090 
	C187.323059,50.311298 186.188889,51.007759 184.414963,52.097057 
	C186.435410,52.542915 187.611710,52.802490 189.454163,53.209072 
	C181.883133,55.247009 178.825729,61.830887 182.645035,65.932770 
	C181.354919,67.920143 180.099487,69.854088 178.311478,72.608444 
	C182.077026,72.775223 184.690598,72.878868 187.302841,73.009247 
	C192.539459,73.270592 197.870728,73.848656 200.700607,67.812943 
	C201.021378,67.128822 201.855515,66.222542 202.467926,66.209885 
	C208.341461,66.088577 214.218491,66.137306 219.626022,66.137306 
	C219.288773,68.758018 219.064743,70.498787 218.744080,72.990616 
	C224.641907,72.990616 229.933701,73.191849 235.182846,72.808662 
	C236.149567,72.738091 236.921753,70.285347 237.829346,68.963440 
	C238.134369,68.519180 238.580902,68.172073 239.467865,67.891235 
	C239.635544,67.931091 239.803238,67.970947 239.884674,68.749443 
	C240.381073,70.159760 240.898636,72.800713 241.370621,72.792595 
	C246.913925,72.697289 252.450409,72.204613 258.638641,71.966835 
	C259.012207,71.800270 259.385773,71.633705 259.759338,71.467140 
	C259.187592,71.275887 258.615814,71.084633 257.986725,70.123306 
	C258.631409,68.314644 259.276062,66.505981 260.265839,64.778877 
	C260.511383,64.703148 260.676086,64.543831 260.959930,63.640968 
M94.024307,94.854927 
	C92.764244,95.862114 91.504181,96.869308 90.385170,97.763756 
	C91.816628,99.033798 93.302719,100.352310 95.151077,101.992249 
	C92.603409,102.351906 90.802513,102.606148 90.212738,102.689407 
	C90.876648,105.074753 92.321068,107.351738 91.786545,108.978447 
	C90.813087,111.940948 94.650429,116.292313 89.707016,117.058060 
	C88.231644,116.687836 86.768852,116.062660 85.278839,115.989120 
	C76.197380,115.540955 67.109718,115.218170 58.557514,114.375725 
	C60.267921,113.629639 63.387035,114.848999 63.932705,111.038460 
	C70.192558,111.038460 76.452415,111.038460 82.063599,111.038460 
	C82.458473,107.422241 83.124451,104.668686 82.946762,101.970688 
	C82.782646,99.478645 82.321182,96.736298 78.493271,96.817558 
	C72.336342,96.948242 66.172256,96.741524 59.997898,96.242516 
	C59.997898,96.242516 59.922539,95.814049 59.710705,95.114883 
	C59.156761,94.318474 58.602818,93.522057 57.515175,91.958336 
	C60.570133,91.958336 62.683559,91.987946 64.795921,91.953186 
	C73.697304,91.806702 83.146622,94.042107 90.037224,86.036095 
	C88.201820,85.906456 86.118614,85.759315 84.053741,85.613464 
	C84.411209,76.896027 84.411209,76.895897 76.074677,76.895424 
	C71.245773,76.895149 66.416878,76.895378 61.587978,76.895378 
	C54.484375,76.895378 47.380772,76.895370 40.349308,76.895370 
	C40.349308,80.252487 40.349308,82.973480 40.349308,85.694786 
	C42.686703,85.858315 44.721035,86.000641 46.503712,86.125359 
	C44.793472,87.563698 42.060593,88.713654 41.705643,90.372452 
	C40.566986,95.693787 38.993587,101.498581 40.127644,106.546234 
	C41.024937,110.540077 39.563469,111.933502 36.193371,114.615059 
	C40.558094,114.936958 43.595226,115.160942 46.632359,115.384926 
	C46.460674,115.859406 46.288990,116.333885 46.117306,116.808365 
	C47.488976,117.345268 48.860645,117.882172 51.605190,118.956459 
	C46.545555,118.956459 42.939537,118.956459 39.887466,118.956459 
	C39.887466,122.426140 39.887466,125.569946 39.887466,128.866211 
	C37.842236,129.025986 35.802856,129.185318 33.763477,129.344635 
	C34.679901,130.320206 35.721138,130.993881 36.734200,130.953903 
	C52.751614,130.321487 68.938339,132.941406 84.748810,128.522919 
	C84.499535,127.349648 84.250259,126.176376 84.590469,125.018730 
	C84.682549,124.683144 84.774628,124.347549 84.974838,123.318085 
	C84.942093,122.865662 84.909348,122.413239 85.649223,121.807777 
	C87.841347,121.449631 90.033463,121.091484 92.225594,120.733330 
	C92.605789,123.977219 92.985985,127.221115 93.404869,130.795120 
	C98.118675,130.795120 103.582375,130.992859 109.022728,130.721924 
	C112.356537,130.555893 114.104385,129.340073 112.983109,125.006790 
	C111.833534,120.564163 112.510323,115.675537 112.077187,111.010956 
	C111.817383,108.213089 110.962929,105.470444 110.300804,102.349815 
	C110.868790,102.349815 112.468376,102.349815 114.067963,102.349815 
	C114.041794,101.819977 114.015625,101.290138 113.840027,100.440948 
	C113.705185,100.236374 113.521477,100.095528 113.109337,99.296738 
	C112.748131,98.964584 112.386917,98.632423 112.027725,97.866516 
	C112.015587,97.577606 112.006340,97.288597 112.337776,96.444885 
	C112.983223,95.965622 113.628670,95.486359 115.068855,95.026711 
	C116.699966,95.026711 118.331078,95.026711 119.962189,95.026711 
	C119.958038,94.682228 119.953896,94.337746 119.949745,93.993263 
	C118.047119,93.993263 116.144493,93.993263 114.028809,93.349831 
	C114.019958,92.898094 114.011108,92.446365 114.388191,91.494247 
	C115.265305,90.978638 116.142426,90.463036 117.778122,90.093239 
	C127.364761,91.313873 136.951401,92.534508 146.743118,93.781250 
	C146.545197,96.181648 144.422318,100.118301 151.272720,100.378326 
	C149.177124,101.551178 147.752991,101.853195 147.487747,102.578842 
	C146.014603,106.608871 146.110931,106.644081 142.461258,106.314537 
	C141.640015,107.182396 140.818771,108.050255 139.568054,109.236977 
	C139.146698,109.781258 138.725342,110.325531 137.437714,111.012665 
	C137.149368,111.062630 136.861008,111.112587 135.689987,111.133179 
	C132.528442,111.109520 129.357178,111.234062 126.207626,111.027596 
	C121.436264,110.714806 116.849892,110.511734 115.290764,116.598747 
	C116.741196,116.791855 118.188187,116.984505 120.164352,117.247612 
	C118.441467,118.269897 117.337669,118.924843 116.226616,119.584099 
	C118.327164,122.236237 122.794090,122.519180 122.349533,126.911438 
	C130.023682,129.418777 137.577438,133.560608 145.900314,131.411133 
	C151.995987,129.836868 157.741302,126.906013 164.019043,124.431488 
	C160.015732,120.214409 164.202850,119.436676 166.528687,117.581467 
	C165.089539,117.043907 164.180405,116.704323 162.378464,116.031258 
	C164.536606,115.406593 165.836945,115.030212 167.137283,114.653831 
	C167.262054,114.170670 167.386810,113.687515 167.511581,113.204361 
	C164.633011,112.210754 161.754456,111.217140 159.820602,110.549622 
	C163.203461,107.581856 166.939926,104.303848 171.570709,100.241264 
	C168.906250,99.938812 167.776398,99.810562 166.375412,99.651535 
	C166.588089,96.989502 166.799744,94.340225 166.949860,92.461174 
	C164.172989,90.617798 161.898026,89.107605 159.623062,87.597412 
	C159.583267,87.115723 159.543488,86.634026 159.503693,86.152336 
	C169.875610,87.322708 161.631760,79.598503 166.385834,76.891434 
	C156.649475,76.891434 148.535507,76.855179 140.422012,76.902222 
	C133.161270,76.944321 125.743317,75.943947 119.061745,79.841499 
	C119.377609,81.575562 119.690247,83.291878 119.352028,85.484200 
	C113.887306,86.557114 113.887306,86.557114 110.768272,76.889450 
	C105.576515,76.889450 100.282150,76.730629 95.011833,77.016006 
	C93.882568,77.077148 91.893806,78.781387 91.925911,79.669991 
	C92.049286,83.084511 92.833115,86.475159 93.367805,89.857040 
	C92.100143,90.020378 90.608414,90.212570 88.307373,90.509048 
	C90.799461,91.563820 92.413101,92.246796 94.017982,93.521492 
	C94.026131,93.718582 94.034286,93.915680 94.024307,94.854927 
M58.775459,64.904129 
	C59.212818,64.028328 59.650177,63.152523 60.975819,62.183430 
	C63.954983,62.214531 66.934143,62.245628 69.971298,63.038147 
	C71.691704,63.666454 73.412102,64.294769 75.834732,65.146988 
	C77.890846,66.618080 79.946960,68.089165 82.910095,70.209198 
	C78.971252,71.034462 76.885658,71.471428 74.800064,71.908401 
	C74.893066,72.464409 74.986076,73.020409 75.079079,73.576416 
	C83.246803,72.768059 91.414536,71.959709 99.582260,71.151352 
	C99.736633,70.674744 99.890999,70.198128 100.045364,69.721512 
	C97.648003,67.383125 95.250633,65.044731 92.008209,61.882065 
	C89.708565,61.882065 86.139229,61.882065 82.569893,61.882065 
	C82.569374,61.701481 82.568855,61.520893 82.568329,61.340309 
	C90.434113,59.613991 98.299896,57.887676 106.457588,56.097290 
	C107.003479,62.611008 107.424507,67.634911 107.857697,72.803825 
	C112.714287,72.803825 118.190804,72.944824 123.654526,72.741646 
	C126.212593,72.646515 128.465103,71.923035 127.995857,68.256416 
	C127.282516,62.682457 127.095444,57.043049 126.496254,51.451649 
	C126.260002,49.247089 125.516907,47.096844 124.939781,44.646664 
	C125.793747,44.518379 127.638367,44.241272 129.914749,43.899307 
	C128.021576,42.240082 126.548302,40.948860 125.078300,39.655922 
	C126.410164,38.779095 127.742035,37.902267 129.912140,37.052956 
	C132.966949,36.690639 136.021774,36.328327 139.711182,36.189289 
	C140.928375,38.627003 142.075546,41.102989 143.381485,43.492199 
	C144.829529,46.141388 146.431076,48.706432 147.937698,51.324287 
	C148.069672,51.553612 147.993057,51.902977 148.013336,52.196587 
	C147.927368,52.188927 147.841385,52.181271 147.755417,52.173615 
	C147.918762,52.171322 148.093002,52.130260 148.243805,52.172615 
	C150.144760,52.706455 152.042328,53.252338 155.113251,54.130379 
	C149.660507,55.475193 149.821320,55.459648 150.197281,59.348576 
	C150.326462,60.684845 149.431168,62.120155 148.800171,64.173012 
	C148.982086,64.987846 149.386902,66.801125 149.721741,68.300934 
	C147.165207,68.955742 145.315247,69.429581 142.816757,70.069534 
	C146.138412,71.282616 148.467651,72.776047 150.854767,72.875183 
	C156.322495,73.102264 161.893585,73.425140 167.317169,72.617943 
	C167.280792,72.208092 167.244431,71.798241 167.208054,71.388390 
	C165.844193,71.122337 164.480316,70.856285 163.116455,70.590233 
	C163.093887,70.270561 163.071320,69.950890 163.048752,69.631226 
	C164.870010,69.275276 166.691269,68.919327 168.878601,68.491837 
	C168.696533,63.231773 167.635941,57.630459 170.753983,52.683010 
	C174.187820,47.234451 174.952148,40.099445 179.978790,36.904697 
	C179.775803,33.801094 179.605225,31.193363 179.424316,28.427471 
	C181.392014,28.199326 182.988571,28.014215 184.585114,27.829103 
	C184.609970,27.624315 184.634827,27.419529 184.659683,27.214741 
	C183.452606,26.925907 182.245529,26.637074 180.969955,26.331848 
	C182.407150,24.017717 183.623276,22.059566 184.893814,20.013783 
	C176.744583,17.870934 165.062531,17.560369 161.570450,26.507343 
	C162.712952,26.716663 163.827118,26.920795 164.941299,27.124928 
	C164.925949,27.333887 164.910599,27.542847 164.895248,27.751806 
	C163.068832,28.047197 161.242432,28.342588 159.416016,28.637981 
	C159.761810,28.946218 160.107605,29.254456 160.453400,29.562693 
	C159.673691,31.056561 158.893982,32.550426 158.794724,32.740612 
	C154.322311,30.429430 150.782166,28.600008 147.417694,26.861370 
	C149.195740,26.154036 151.510178,25.233318 153.824615,24.312601 
	C153.691086,23.987053 153.557556,23.661505 153.424026,23.335957 
	C152.006485,23.151720 150.588928,22.967482 148.960007,22.755772 
	C150.186005,21.592176 151.163773,20.664190 152.141541,19.736202 
	C144.331558,19.890821 136.242523,16.429523 129.324371,22.623985 
	C130.629730,23.789167 131.619247,24.672432 132.968399,25.876715 
	C130.409317,25.876715 128.436157,25.876715 126.242424,25.876715 
	C126.078339,23.581915 125.919937,21.366772 125.742577,18.886330 
	C120.736870,18.886330 116.023170,18.393688 111.466278,19.027847 
	C107.096375,19.635983 102.889153,21.413078 98.865120,22.601252 
	C98.067368,21.309622 97.374260,19.202856 96.665436,19.197554 
	C91.585350,19.159555 86.497742,19.494257 81.427124,19.895275 
	C80.969032,19.931503 80.613968,21.270309 79.398239,21.988295 
	C78.351349,22.237089 77.304451,22.485886 76.257561,22.734680 
	C76.320999,23.150749 76.384438,23.566818 76.447876,23.982887 
	C80.005180,23.982887 83.562485,23.982887 87.156578,24.823839 
	C86.422363,25.268787 85.721436,25.784931 84.948227,26.146509 
	C81.348137,27.830032 77.728065,29.470810 73.229774,30.947634 
	C71.177856,31.521973 69.125946,32.096313 66.257362,32.417149 
	C64.833702,32.362556 63.410046,32.307964 62.029221,31.480320 
	C63.268764,30.582701 64.508308,29.685081 66.494026,28.247116 
	C64.420601,28.582827 63.153812,28.787933 61.880711,28.215160 
	C62.702484,27.128920 63.524258,26.042681 65.288040,25.033300 
	C66.827614,24.946957 68.367195,24.860613 70.726433,24.728300 
	C68.180260,20.392727 64.603043,22.753183 61.840996,21.218269 
	C54.491783,18.931036 47.037682,18.221933 38.838360,19.313995 
	C40.978786,20.431934 42.478535,21.215250 43.069881,21.986574 
	C40.384212,21.986574 37.698544,21.986574 35.012875,21.986574 
	C35.032196,22.517828 35.051521,23.049084 35.070843,23.580338 
	C39.960228,23.983776 44.849609,24.387217 48.897751,24.789711 
	C43.809261,24.834366 38.011616,28.368902 36.503349,32.254318 
	C38.474499,32.406265 40.462368,32.559502 42.450237,32.712742 
	C42.446045,32.993664 42.441856,33.274586 42.437668,33.555508 
	C41.353291,33.855244 40.268917,34.154976 39.184540,34.454712 
	C39.197605,34.699657 39.210670,34.944599 39.223736,35.189545 
	C42.002956,35.501617 44.782173,35.813690 47.561394,36.125763 
	C47.547161,36.466717 47.532932,36.807671 47.518703,37.148621 
	C44.807777,37.332973 42.096851,37.517323 38.886017,37.735668 
	C39.768993,38.889114 40.342625,39.638458 41.034424,40.542171 
	C37.799488,41.447483 34.968430,42.239769 32.137371,43.032051 
	C32.225391,43.432632 32.313412,43.833210 32.401428,44.233791 
	C36.072067,44.233791 39.742710,44.233791 43.413349,44.233791 
	C43.435467,44.442631 43.457584,44.651466 43.479702,44.860306 
	C41.430607,45.652203 39.381512,46.444096 37.332417,47.235992 
	C46.365360,46.910946 38.017956,53.225121 41.324707,54.879875 
	C38.924400,55.176712 37.291912,55.378597 34.691410,55.700188 
	C36.484772,56.696117 37.204922,57.096046 38.621082,57.882500 
	C35.845814,58.229286 33.914303,58.470638 31.982790,58.711990 
	C31.983755,59.293133 31.984718,59.874271 31.985682,60.455414 
	C36.928989,60.455414 41.872299,60.455414 46.815609,60.455414 
	C46.811020,61.081871 46.806431,61.708324 46.801846,62.334782 
	C41.569069,62.334782 36.336296,62.334782 31.103523,62.334782 
	C31.109251,62.775177 31.114977,63.215569 31.120705,63.655964 
	C34.128334,63.655964 37.135963,63.655964 40.229164,63.655964 
	C39.615944,67.021645 39.099594,69.855629 38.668766,72.220253 
	C45.742928,72.220253 51.706207,72.220253 56.773212,72.220253 
	C57.351784,69.210327 57.751667,67.130005 58.775459,64.904129 
M175.496597,124.394363 
	C175.496597,126.493683 175.496597,128.593002 175.496597,130.800583 
	C180.811340,130.800583 186.296524,130.980026 191.762177,130.730957 
	C194.868210,130.589417 196.748978,129.549347 195.807999,125.333527 
	C194.770325,120.684418 195.324768,115.699318 194.908356,110.884560 
	C194.675888,108.196556 193.880081,105.557281 193.273636,102.579437 
	C193.906876,102.500862 195.763474,102.270500 198.184357,101.970123 
	C196.147873,100.263649 194.614120,98.978439 193.635559,98.158455 
	C194.911285,96.401627 196.179428,94.655243 197.830963,92.380890 
	C194.991379,91.776253 193.522003,91.463371 192.052612,91.150490 
	C192.072632,90.873344 192.092667,90.596207 192.112686,90.319061 
	C193.399597,90.121155 194.686508,89.923241 196.547348,89.637070 
	C195.559097,85.153893 194.662613,81.087090 193.737396,76.889854 
	C188.355606,76.889854 183.368927,76.816742 178.385590,76.914284 
	C174.765457,76.985161 173.256821,79.445869 174.473953,82.906303 
	C175.223221,85.036560 175.875839,87.200813 176.627777,89.522522 
	C174.530899,89.966431 173.289825,90.229164 172.048767,90.491898 
	C172.074661,90.767097 172.100540,91.042305 172.126419,91.317505 
	C173.639343,91.582733 175.152252,91.847961 178.126114,92.369308 
	C176.146393,94.806992 174.780045,96.489403 173.565262,97.985199 
	C174.713791,99.034386 176.157150,100.352882 177.910339,101.954422 
	C175.529846,102.302696 173.689407,102.571953 172.718506,102.713997 
	C176.601624,109.572495 173.980194,116.908813 175.496597,124.394363 
z"/>
<path fill="#080808" opacity="1.000000" stroke="none" 
	d="
M69.913307,62.276733 
	C66.934143,62.245628 63.954983,62.214531 60.078224,62.113670 
	C55.797413,62.043907 52.414188,62.043907 49.030968,62.043907 
	C49.040321,62.487366 49.049675,62.930824 49.059029,63.374283 
	C52.089870,63.932747 55.120708,64.491211 58.151550,65.049683 
	C57.751667,67.130005 57.351784,69.210327 56.773212,72.220253 
	C51.706207,72.220253 45.742928,72.220253 38.668766,72.220253 
	C39.099594,69.855629 39.615944,67.021645 40.229164,63.655964 
	C37.135963,63.655964 34.128334,63.655964 31.120705,63.655964 
	C31.114977,63.215569 31.109251,62.775177 31.103523,62.334782 
	C36.336296,62.334782 41.569069,62.334782 46.801846,62.334782 
	C46.806431,61.708324 46.811020,61.081871 46.815609,60.455414 
	C41.872299,60.455414 36.928989,60.455414 31.985682,60.455414 
	C31.984718,59.874271 31.983755,59.293133 31.982790,58.711990 
	C33.914303,58.470638 35.845814,58.229286 38.621082,57.882500 
	C37.204922,57.096046 36.484772,56.696117 34.691410,55.700188 
	C37.291912,55.378597 38.924400,55.176712 41.324707,54.879875 
	C38.017956,53.225121 46.365360,46.910946 37.332417,47.235992 
	C39.381512,46.444096 41.430607,45.652203 43.479702,44.860306 
	C43.457584,44.651466 43.435467,44.442631 43.413349,44.233791 
	C39.742710,44.233791 36.072067,44.233791 32.401428,44.233791 
	C32.313412,43.833210 32.225391,43.432632 32.137371,43.032051 
	C34.968430,42.239769 37.799488,41.447483 41.034424,40.542171 
	C40.342625,39.638458 39.768993,38.889114 38.886017,37.735668 
	C42.096851,37.517323 44.807777,37.332973 47.518703,37.148621 
	C47.532932,36.807671 47.547161,36.466717 47.561394,36.125763 
	C44.782173,35.813690 42.002956,35.501617 39.223736,35.189545 
	C39.210670,34.944599 39.197605,34.699657 39.184540,34.454712 
	C40.268917,34.154976 41.353291,33.855244 42.437668,33.555508 
	C42.441856,33.274586 42.446045,32.993664 42.450237,32.712742 
	C40.462368,32.559502 38.474499,32.406265 36.503349,32.254318 
	C38.011616,28.368902 43.809261,24.834366 49.665161,24.825813 
	C50.686153,24.018635 50.939732,23.175352 51.293594,21.998566 
	C48.586086,21.998566 46.282185,21.998566 43.978287,21.998566 
	C42.478535,21.215250 40.978786,20.431934 38.838360,19.313995 
	C47.037682,18.221933 54.491783,18.931036 61.461990,21.607815 
	C58.613621,21.997362 56.144249,21.997362 53.674881,21.997362 
	C53.674389,22.426394 53.673897,22.855425 53.673401,23.284454 
	C57.230946,23.841784 60.788486,24.399113 64.346031,24.956442 
	C63.524258,26.042681 62.702484,27.128920 61.524361,28.587486 
	C60.605545,30.057070 60.043079,31.154327 59.480606,32.251579 
	C60.315865,32.252178 61.151127,32.252773 61.986385,32.253372 
	C63.410046,32.307964 64.833702,32.362556 66.968575,32.761742 
	C69.824905,32.446518 71.970016,31.786697 74.115135,31.126877 
	C77.728065,29.470810 81.348137,27.830032 84.948227,26.146509 
	C85.721436,25.784931 86.422363,25.268787 87.385521,24.158001 
	C85.146660,22.996176 82.678856,22.500189 80.211052,22.004202 
	C80.613968,21.270309 80.969032,19.931503 81.427124,19.895275 
	C86.497742,19.494257 91.585350,19.159555 96.665436,19.197554 
	C97.374260,19.202856 98.067368,21.309622 98.865120,22.601252 
	C102.889153,21.413078 107.096375,19.635983 111.466278,19.027847 
	C116.023170,18.393688 120.736870,18.886330 125.742577,18.886330 
	C125.919937,21.366772 126.078339,23.581915 126.242424,25.876715 
	C128.436157,25.876715 130.409317,25.876715 132.968399,25.876715 
	C131.619247,24.672432 130.629730,23.789167 129.324371,22.623985 
	C136.242523,16.429523 144.331558,19.890821 152.141541,19.736202 
	C151.163773,20.664190 150.186005,21.592176 148.960007,22.755772 
	C150.588928,22.967482 152.006485,23.151720 153.424026,23.335957 
	C153.557556,23.661505 153.691086,23.987053 153.824615,24.312601 
	C151.510178,25.233318 149.195740,26.154036 147.417694,26.861370 
	C150.782166,28.600008 154.322311,30.429430 158.794724,32.740612 
	C158.893982,32.550426 159.673691,31.056561 160.453400,29.562693 
	C160.107605,29.254456 159.761810,28.946218 159.416016,28.637981 
	C161.242432,28.342588 163.068832,28.047197 164.895248,27.751806 
	C164.910599,27.542847 164.925949,27.333887 164.941299,27.124928 
	C163.827118,26.920795 162.712952,26.716663 161.570450,26.507343 
	C165.062531,17.560369 176.744583,17.870934 184.893814,20.013783 
	C183.623276,22.059566 182.407150,24.017717 180.969955,26.331848 
	C182.245529,26.637074 183.452606,26.925907 184.659683,27.214741 
	C184.634827,27.419529 184.609970,27.624315 184.585114,27.829103 
	C182.988571,28.014215 181.392014,28.199326 179.424316,28.427471 
	C179.605225,31.193363 179.775803,33.801094 179.978790,36.904697 
	C174.952148,40.099445 174.187820,47.234451 170.753983,52.683010 
	C167.635941,57.630459 168.696533,63.231773 168.878601,68.491837 
	C166.691269,68.919327 164.870010,69.275276 163.048752,69.631226 
	C163.071320,69.950890 163.093887,70.270561 163.116455,70.590233 
	C164.480316,70.856285 165.844193,71.122337 167.208054,71.388390 
	C167.244431,71.798241 167.280792,72.208092 167.317169,72.617943 
	C161.893585,73.425140 156.322495,73.102264 150.854767,72.875183 
	C148.467651,72.776047 146.138412,71.282616 142.816757,70.069534 
	C145.315247,69.429581 147.165207,68.955742 149.721741,68.300934 
	C149.386902,66.801125 148.982086,64.987846 148.800171,64.173012 
	C149.431168,62.120155 150.326462,60.684845 150.197281,59.348576 
	C149.821320,55.459648 149.660507,55.475193 155.113251,54.130379 
	C152.042328,53.252338 150.144760,52.706455 148.243805,52.172615 
	C148.093002,52.130260 147.918762,52.171322 147.755417,52.173615 
	C147.841385,52.181271 147.927368,52.188927 148.013336,52.196587 
	C147.993057,51.902977 148.069672,51.553612 147.937698,51.324287 
	C146.431076,48.706432 144.829529,46.141388 143.381485,43.492199 
	C142.075546,41.102989 140.928375,38.627003 139.340668,35.738632 
	C138.237900,34.201801 137.505630,33.115623 136.673767,31.697279 
	C135.629761,30.517529 134.791397,29.490396 133.720108,28.857616 
	C131.016403,27.260626 128.280838,28.843775 127.644150,32.021996 
	C126.143166,32.158558 125.044342,32.292122 124.822044,32.319141 
	C126.286507,33.940132 127.680206,35.482788 129.073898,37.025444 
	C127.742035,37.902267 126.410164,38.779095 125.076668,39.656784 
	C126.548302,40.948860 128.021576,42.240082 129.914749,43.899307 
	C127.638367,44.241272 125.793747,44.518379 124.939781,44.646664 
	C125.516907,47.096844 126.260002,49.247089 126.496254,51.451649 
	C127.095444,57.043049 127.282516,62.682457 127.995857,68.256416 
	C128.465103,71.923035 126.212593,72.646515 123.654526,72.741646 
	C118.190804,72.944824 112.714287,72.803825 107.857697,72.803825 
	C107.424507,67.634911 107.003479,62.611008 106.457588,56.097290 
	C98.299896,57.887676 90.434113,59.613991 82.568329,61.340309 
	C82.568855,61.520893 82.569374,61.701481 82.569893,61.882065 
	C86.139229,61.882065 89.708565,61.882065 92.008209,61.882065 
	C95.250633,65.044731 97.648003,67.383125 100.045364,69.721512 
	C99.890999,70.198128 99.736633,70.674744 99.582260,71.151352 
	C91.414536,71.959709 83.246803,72.768059 75.079079,73.576416 
	C74.986076,73.020409 74.893066,72.464409 74.800064,71.908401 
	C76.885658,71.471428 78.971252,71.034462 82.910095,70.209198 
	C79.946960,68.089165 77.890846,66.618080 75.601410,64.662819 
	C75.141495,63.461960 74.961128,62.149082 74.680687,62.127342 
	C73.104889,62.005196 71.504982,62.194016 69.913307,62.276733 
M59.783367,57.974960 
	C60.190147,57.511261 60.596928,57.047558 61.003704,56.583855 
	C60.343857,56.410576 59.684010,56.237293 58.239620,55.909828 
	C56.942085,55.974377 55.644547,56.038921 54.242573,56.108665 
	C54.760368,56.758625 55.177876,57.282700 55.653763,57.880054 
	C53.693336,58.099491 51.903755,58.299805 50.114170,58.500118 
	C50.203861,58.851147 50.293549,59.202171 50.383240,59.553200 
	C53.268055,59.000839 56.152866,58.448479 59.783367,57.974960 
M90.175713,42.204765 
	C90.398781,42.818970 90.603409,43.959423 90.847694,43.967983 
	C94.205292,44.085659 97.568367,44.047379 100.930092,44.047379 
	C100.956551,44.329746 100.983002,44.612118 101.009453,44.894485 
	C99.049278,45.614552 97.089104,46.334618 94.074135,47.442154 
	C96.561234,47.985291 97.789505,48.253521 98.889038,48.493637 
	C98.304878,50.659077 97.792778,52.557381 97.280685,54.455685 
	C97.146912,54.364857 97.013130,54.274029 96.879356,54.183201 
	C96.901726,54.255722 96.924095,54.328243 97.186913,55.180393 
	C100.285767,54.589279 104.074127,54.756233 106.446533,53.004990 
	C107.491524,52.233601 105.658188,47.562943 105.115593,44.574146 
	C105.957458,44.471119 107.723503,44.254990 109.878815,43.991219 
	C108.016945,42.269974 106.502998,40.870380 105.005974,39.486427 
	C112.828796,36.224590 108.594307,34.315517 102.874100,32.424660 
	C105.378365,32.127949 106.608543,31.982193 107.852661,31.834785 
	C107.852661,29.787971 107.852661,28.018581 107.852661,26.176258 
	C106.028915,26.176258 104.396111,26.176258 102.763306,26.176258 
	C102.963737,26.548744 103.164169,26.921230 103.364601,27.293716 
	C102.228600,27.949150 101.153267,28.764763 99.942688,29.223291 
	C98.021873,29.950830 96.529167,33.859253 97.291115,35.662983 
	C96.176758,35.924625 95.062401,36.186268 93.948036,36.447906 
	C93.961853,36.828320 93.975670,37.208736 93.989479,37.589149 
	C95.613472,37.732513 97.237465,37.875877 98.875412,38.585239 
	C98.778763,38.948929 98.682121,39.312618 97.822502,39.956409 
	C95.493973,40.579727 93.165451,41.203049 90.175713,42.204765 
z"/>
<path fill="#050505" opacity="1.000000" stroke="none" 
	d="
M310.177246,27.084856 
	C315.682068,17.356958 340.990540,14.970092 348.562592,22.513979 
	C351.059631,25.001722 353.966644,27.339012 357.579620,25.591572 
	C359.664154,24.583366 361.020264,22.134727 362.841461,20.486000 
	C363.642120,19.761145 364.781525,18.969481 365.772583,18.962358 
	C379.560669,18.863276 393.349915,18.864618 407.138367,18.936420 
	C408.727417,18.944695 410.313538,19.523233 412.574768,19.970699 
	C410.707733,21.507429 409.332062,22.639751 407.040314,24.526072 
	C410.442963,24.750038 412.778992,24.903799 415.115021,25.057560 
	C415.119873,25.315514 415.124695,25.573469 415.129517,25.831423 
	C410.783722,25.831423 406.437958,25.831423 400.859772,25.831423 
	C405.954498,29.122545 412.262634,26.567564 414.797241,32.678246 
	C414.927856,33.046707 414.992004,32.957413 414.992004,32.957413 
	C411.237427,32.543335 407.648926,31.193258 404.070648,34.622787 
	C402.699249,35.937168 399.013519,34.836823 396.516113,34.836823 
	C395.890198,37.832764 394.209991,40.877346 395.075531,42.737183 
	C397.088776,47.063263 392.809296,52.708199 398.192322,56.207142 
	C398.669464,56.517288 397.737915,58.994667 397.460602,60.465473 
	C397.000061,60.410347 396.539490,60.355221 396.078949,60.300098 
	C396.596252,60.897018 397.122009,61.486893 397.628510,62.092850 
	C398.132050,62.695278 398.616211,63.313881 398.459595,63.119492 
	C397.803741,65.882713 397.646057,67.967453 396.786621,69.705101 
	C396.133575,71.025421 394.640991,72.757774 393.430511,72.832855 
	C387.998596,73.169807 382.533966,72.979622 375.947327,72.979622 
	C377.090363,69.843208 378.357178,67.568359 378.637024,65.177979 
	C378.824341,63.577530 377.610260,61.813026 377.085724,60.301842 
	C378.027344,59.003181 379.209564,57.372692 380.369568,55.772831 
	C375.294556,54.333706 374.481781,52.021065 376.931488,45.455276 
	C376.140228,45.094482 375.340240,44.729717 374.179504,44.200470 
	C375.530609,43.099041 376.599121,42.227985 376.887848,41.992615 
	C376.887848,39.796082 376.887848,38.081280 376.887848,35.611729 
	C370.425507,35.611729 364.244995,35.611729 357.505737,35.611729 
	C358.244537,38.462620 358.973907,41.277256 359.703278,44.091892 
	C360.215027,44.117455 360.726746,44.143013 361.238464,44.168575 
	C360.041351,45.590130 358.844208,47.011681 357.451599,48.665394 
	C358.139679,48.827793 358.804230,48.984638 359.425659,49.131302 
	C358.914124,50.292133 358.081177,51.421787 357.932373,52.635326 
	C356.025269,68.188286 348.715485,72.147888 335.875763,73.661186 
	C326.408295,74.777008 317.774078,72.258064 310.751099,65.833092 
	C308.781067,64.030815 308.365875,60.529018 307.127869,57.031738 
	C307.000000,55.475323 306.981689,54.693951 306.948547,53.560799 
	C306.790802,51.853989 306.849304,50.438255 306.463074,49.156525 
	C305.647003,46.448174 308.362946,42.327831 303.761719,41.640266 
	C304.855804,40.494678 306.402802,39.558788 306.890167,38.233288 
	C308.224304,34.604824 309.112488,30.812370 310.177246,27.084856 
M339.296875,43.146248 
	C338.939606,42.889931 338.234863,42.502228 338.274963,42.396156 
	C340.203857,37.294342 336.028595,35.127808 333.049713,33.373318 
	C330.840485,32.072136 328.038696,33.554642 327.106506,36.874031 
	C326.612854,38.631863 325.297821,40.159027 324.420837,41.674210 
	C324.856293,42.599415 325.846954,43.956787 326.123169,45.446625 
	C326.699707,48.556278 326.379272,51.928875 327.450684,54.813362 
	C328.079193,56.505596 330.549683,58.180851 332.431213,58.515129 
	C333.773102,58.753529 335.950043,57.064182 336.966797,55.663429 
	C338.256897,53.886028 338.765167,51.535187 339.499176,49.393436 
	C339.517914,49.338661 338.240906,48.839809 338.432373,48.922852 
	C338.984222,46.963791 339.510193,45.096703 339.296875,43.146248 
M358.465363,32.542671 
	C360.704010,32.542671 362.942657,32.542671 365.181335,32.542671 
	C365.315460,31.942499 365.449615,31.342327 365.583771,30.742155 
	C362.133301,29.458727 358.682861,28.175299 355.232422,26.891870 
	C354.982971,27.297171 354.733521,27.702473 354.484100,28.107773 
	C355.583771,29.471731 356.683472,30.835691 358.465363,32.542671 
z"/>
<path fill="#050505" opacity="1.000000" stroke="none" 
	d="
M262.987671,32.169621 
	C264.388672,32.250546 265.789673,32.331470 267.853882,32.683109 
	C269.350891,34.077461 270.184692,35.201099 270.531281,35.668171 
	C272.347534,34.727642 273.326904,34.486622 273.877167,33.865444 
	C274.508270,33.153027 274.758728,32.103477 275.174561,31.200378 
	C279.035980,29.517834 282.907959,27.858685 286.748749,26.130327 
	C287.410370,25.832609 287.939545,25.240707 288.689880,24.034622 
	C286.557770,22.855818 284.265625,22.427076 281.973511,21.998335 
	C282.822906,20.990713 283.612396,19.181383 284.531982,19.112638 
	C288.777313,18.795279 293.076233,18.753691 297.314880,19.106548 
	C298.340057,19.191891 299.209015,21.153713 300.021820,22.103117 
	C302.867676,23.086920 305.792267,24.097935 308.414673,25.570377 
	C306.854279,26.232214 305.143433,25.982822 304.418152,26.712736 
	C301.629578,29.519062 298.159210,31.860651 296.652130,35.989761 
	C296.268463,36.590755 296.056915,37.637672 296.284790,37.744144 
	C297.489441,38.307003 298.804718,38.633129 300.046753,39.033932 
	C300.011902,39.026524 300.066772,39.072136 299.743896,39.321167 
	C297.695496,39.784222 295.879181,39.740997 294.277740,40.306389 
	C293.277649,40.659473 292.601654,41.930553 291.439026,43.022728 
	C294.826019,43.652779 298.554260,44.049789 303.174988,44.541843 
	C300.403564,45.636436 298.342926,46.450306 297.450409,46.802811 
	C298.121277,49.184471 298.619690,50.953861 299.044983,53.062031 
	C298.302399,54.181568 297.632965,54.962330 297.038086,55.656136 
	C298.982635,56.058994 300.981445,56.473091 302.980255,56.887192 
	C299.201935,58.014774 295.460175,59.294331 291.632141,60.215282 
	C289.173431,60.806789 286.587769,60.870411 284.043427,61.899242 
	C285.401611,61.990356 286.759827,62.081467 288.561066,62.640419 
	C290.716522,63.719475 292.428986,64.330688 294.141418,64.941902 
	C296.233643,66.209724 298.325867,67.477539 300.236938,69.400475 
	C300.031586,70.271957 300.007355,70.488327 299.983154,70.704697 
	C293.304565,71.467102 286.625977,72.229500 279.654602,72.697578 
	C279.905914,71.989540 280.450012,71.575836 280.994141,71.162125 
	C284.318512,70.240799 282.183350,68.383202 281.289673,67.509377 
	C280.137604,66.382881 278.374969,65.880852 276.594116,64.686996 
	C276.323822,63.518810 276.334686,62.773487 276.345581,62.028168 
	C274.535583,62.109421 272.725616,62.190674 270.915619,62.271927 
	C267.934967,62.240051 264.954315,62.208176 261.078461,62.106514 
	C256.819550,62.036724 253.455811,62.036724 250.092087,62.036724 
	C250.138092,62.531513 250.184113,63.026299 250.230118,63.521088 
	C253.440170,63.950066 256.650208,64.379036 259.873657,64.779388 
	C259.887024,64.750763 259.920715,64.697311 259.920715,64.697311 
	C259.276062,66.505981 258.631409,68.314644 257.989380,70.738449 
	C257.992065,71.353600 257.988678,71.816734 257.988678,71.816727 
	C252.450409,72.204613 246.913925,72.697289 241.370621,72.792595 
	C240.898636,72.800713 240.381073,70.159760 240.202515,68.267273 
	C241.030273,66.993546 241.540176,66.201996 242.299164,65.090576 
	C244.669662,63.742592 246.791092,62.714481 248.912521,61.686367 
	C248.881638,61.133991 248.850754,60.581612 248.819870,60.029236 
	C244.227783,60.029236 239.635681,60.029236 234.698151,60.013668 
	C233.892242,59.995720 233.431763,59.993343 233.054535,59.592674 
	C235.211304,58.827702 237.284805,58.461025 239.715836,58.073151 
	C242.051147,57.163872 244.028946,56.275784 246.280533,55.264755 
	C244.635452,54.510983 242.964157,53.745205 241.292862,52.979424 
	C243.350952,48.451492 243.350952,48.451492 237.768585,47.628048 
	C240.467285,46.531792 242.582565,45.672523 244.697861,44.813255 
	C244.651245,44.531864 244.604645,44.250469 244.558044,43.969078 
	C240.731140,43.969078 236.904236,43.969078 233.077332,43.969078 
	C233.013428,43.564827 232.949524,43.160576 232.885620,42.756325 
	C235.891754,42.121330 238.897873,41.486336 242.569931,40.710678 
	C241.530869,39.472946 241.004822,38.846333 240.150253,37.828384 
	C243.174194,37.578281 245.870346,37.355289 248.566498,37.132298 
	C248.589996,36.799320 248.613480,36.466343 248.636963,36.133366 
	C245.925568,35.805920 243.214157,35.478474 240.502747,35.151024 
	C240.497345,34.880501 240.491928,34.609974 240.486526,34.339451 
	C241.596848,34.110207 242.707184,33.880962 243.817505,33.651722 
	C243.798218,33.350681 243.778915,33.049637 243.759628,32.748596 
	C241.792892,32.562984 239.826172,32.377373 236.483154,32.061871 
	C239.849792,29.640598 242.451157,27.769699 245.537201,25.480755 
	C251.129196,24.948666 251.129196,24.948666 252.160126,22.003462 
	C249.785797,22.003462 247.504730,22.003462 245.223663,22.003460 
	C243.711426,21.214417 242.199173,20.425375 239.998795,19.277287 
	C248.161621,18.323433 255.583069,18.809738 262.474976,21.604197 
	C259.738007,21.997036 257.406708,21.997036 255.075424,21.997036 
	C255.054672,22.397329 255.033920,22.797625 255.013168,23.197918 
	C258.392120,23.828606 261.771088,24.459293 265.150055,25.089981 
	C264.538452,25.730776 263.880127,26.334810 263.335083,27.027931 
	C263.064240,27.372307 263.001373,27.880217 262.520813,28.642870 
	C261.692596,30.059683 261.187988,31.147770 260.683380,32.235859 
	C261.451477,32.213779 262.219574,32.191700 262.987671,32.169621 
M259.996155,54.307869 
	C259.819641,54.048691 259.643097,53.789516 259.466583,53.530338 
	C259.302734,53.980476 259.138885,54.430614 258.258698,55.013187 
	C257.315979,55.056332 256.373260,55.099480 253.956955,55.210072 
	C255.863907,55.863747 256.411102,56.051323 256.924072,56.961243 
	C257.762360,58.075756 258.600616,59.190269 259.438904,60.304783 
	C260.390930,57.339317 266.607483,61.879299 265.303558,55.487789 
	C265.205536,55.317924 265.107544,55.148064 264.936279,54.383663 
	C264.536713,54.028351 264.137146,53.673042 263.737579,53.317734 
	C263.478821,53.811256 263.220093,54.304779 262.235168,54.915878 
	C261.502045,54.881844 260.768951,54.847805 259.996155,54.307869 
M278.119873,53.924873 
	C277.117645,54.791103 276.115417,55.657337 275.113159,56.523563 
	C276.336365,56.889511 277.540771,57.412621 278.789886,57.562382 
	C279.537415,57.652008 280.355042,57.157375 282.032043,56.961819 
	C285.564575,56.495457 289.841980,58.961742 291.885254,54.925285 
	C288.606873,54.308350 285.020905,53.547794 281.400879,53.021595 
	C280.638397,52.910770 279.750946,53.659855 278.119873,53.924873 
M252.353485,60.030823 
	C252.094269,59.873585 251.835068,59.716343 251.575851,59.559101 
	C251.480804,59.828793 251.385742,60.098484 251.290695,60.368176 
	C251.677200,60.410400 252.063690,60.452625 252.353485,60.030823 
M268.830505,58.767933 
	C268.604980,58.771137 268.376709,58.758835 268.157349,58.797352 
	C268.130188,58.802116 268.150452,59.077137 268.148743,59.226929 
	C268.376495,59.223988 268.604248,59.221050 268.830505,58.767933 
M266.595215,60.502819 
	C266.595215,60.502819 266.475098,60.579205 266.595215,60.502819 
z"/>
<path fill="#050505" opacity="1.000000" stroke="none" 
	d="
M414.882202,33.077339 
	C415.377197,32.853966 416.307404,32.699780 416.401794,32.331440 
	C419.150177,21.604742 427.979858,19.494556 436.976532,18.332802 
	C449.722015,16.686949 457.874695,20.591465 464.444672,30.226408 
	C465.099152,31.186178 464.673492,32.882504 464.794159,35.043530 
	C465.745300,37.441921 467.093506,40.841637 468.765289,45.057278 
	C464.314667,47.523544 467.016083,52.905941 465.641205,57.216125 
	C463.925171,62.595791 461.786072,67.880035 456.222382,70.431587 
	C445.627319,75.290604 430.954132,76.348427 419.076843,65.933212 
	C414.299652,61.744087 415.412781,55.269577 414.749329,49.623066 
	C414.406799,46.707851 416.165527,43.170448 411.383392,41.317104 
	C416.872711,40.563747 414.795959,36.668541 415.119019,33.391701 
	C414.992004,32.957413 414.927856,33.046707 414.882202,33.077339 
M447.726776,41.268715 
	C447.362488,40.328266 446.829254,39.416744 446.662445,38.442482 
	C445.834198,33.604565 441.506104,35.011547 438.614990,34.201191 
	C437.981323,34.023582 436.576721,36.675686 435.494232,37.997669 
	C434.451965,39.270500 433.367096,40.508423 432.347687,41.706738 
	C436.274017,43.418732 434.940125,46.961037 434.724548,50.028599 
	C434.415833,54.421364 437.076080,58.714424 440.605804,58.712688 
	C445.336487,58.710361 445.861176,55.220234 446.217072,51.560505 
	C446.356506,50.126400 446.675751,48.367889 447.596191,47.421345 
	C449.641724,45.317772 448.620087,43.713043 447.726776,41.268715 
z"/>
<path fill="#040404" opacity="1.000000" stroke="none" 
	d="
M60.011192,96.677361 
	C66.172256,96.741524 72.336342,96.948242 78.493271,96.817558 
	C82.321182,96.736298 82.782646,99.478645 82.946762,101.970688 
	C83.124451,104.668686 82.458473,107.422241 82.063599,111.038460 
	C76.452415,111.038460 70.192558,111.038460 63.094395,111.032440 
	C60.078178,111.662170 57.900272,112.297928 55.722363,112.933678 
	C55.785381,113.293686 55.848404,113.653694 55.911423,114.013695 
	C56.615658,114.293648 57.319893,114.573601 58.024132,114.853554 
	C67.109718,115.218170 76.197380,115.540955 85.278839,115.989120 
	C86.768852,116.062660 88.231644,116.687836 89.199493,117.529541 
	C86.894936,118.304314 85.097893,118.607590 83.300850,118.910866 
	C83.826096,119.927513 84.351341,120.944168 84.876602,121.960815 
	C84.909348,122.413239 84.942093,122.865662 84.723732,123.778564 
	C84.233322,124.443054 84.076111,124.697739 84.000984,125.003105 
	C84.250259,126.176376 84.499535,127.349648 84.754753,128.521729 
	C68.938339,132.941406 52.751614,130.321487 36.734200,130.953903 
	C35.721138,130.993881 34.679901,130.320206 33.763477,129.344635 
	C35.802856,129.185318 37.842236,129.025986 39.887466,128.866211 
	C39.887466,125.569946 39.887466,122.426140 39.887466,118.956459 
	C42.939537,118.956459 46.545555,118.956459 51.605190,118.956459 
	C48.860645,117.882172 47.488976,117.345268 46.117306,116.808365 
	C46.288990,116.333885 46.460674,115.859406 46.632359,115.384926 
	C43.595226,115.160942 40.558094,114.936958 36.193371,114.615059 
	C39.563469,111.933502 41.024937,110.540077 40.127644,106.546234 
	C38.993587,101.498581 40.566986,95.693787 41.705643,90.372452 
	C42.060593,88.713654 44.793472,87.563698 46.503712,86.125359 
	C44.721035,86.000641 42.686703,85.858315 40.349308,85.694786 
	C40.349308,82.973480 40.349308,80.252487 40.349308,76.895370 
	C47.380772,76.895370 54.484375,76.895378 61.587978,76.895378 
	C66.416878,76.895378 71.245773,76.895149 76.074677,76.895424 
	C84.411209,76.895897 84.411209,76.896027 84.053741,85.613464 
	C86.118614,85.759315 88.201820,85.906456 90.037224,86.036095 
	C83.146622,94.042107 73.697304,91.806702 64.795921,91.953186 
	C62.683559,91.987946 60.570133,91.958336 57.515175,91.958336 
	C58.602818,93.522057 59.156761,94.318474 59.554253,95.565857 
	C59.602261,96.237015 59.806728,96.457184 60.011192,96.677361 
z"/>
<path fill="#050505" opacity="1.000000" stroke="none" 
	d="
M238.962753,67.780563 
	C238.580902,68.172073 238.134369,68.519180 237.829346,68.963440 
	C236.921753,70.285347 236.149567,72.738091 235.182846,72.808662 
	C229.933701,73.191849 224.641907,72.990616 218.744080,72.990616 
	C219.064743,70.498787 219.288773,68.758018 219.626022,66.137306 
	C214.218491,66.137306 208.341461,66.088577 202.467926,66.209885 
	C201.855515,66.222542 201.021378,67.128822 200.700607,67.812943 
	C197.870728,73.848656 192.539459,73.270592 187.302841,73.009247 
	C184.690598,72.878868 182.077026,72.775223 178.311478,72.608444 
	C180.099487,69.854088 181.354919,67.920143 182.645035,65.932770 
	C178.825729,61.830887 181.883133,55.247009 189.454163,53.209072 
	C187.611710,52.802490 186.435410,52.542915 184.414963,52.097057 
	C186.188889,51.007759 187.323059,50.311298 187.710983,50.073090 
	C188.281311,46.944550 188.044296,43.925972 189.363907,41.943569 
	C191.790405,38.298252 189.174988,38.230469 187.038620,37.496502 
	C185.597458,37.001381 184.145828,36.536701 182.698883,36.058399 
	C182.718094,35.480236 182.737305,34.902073 182.756516,34.323910 
	C185.385605,33.543770 188.471405,33.368610 190.521271,31.821175 
	C192.779251,30.116638 194.085480,27.151342 196.102066,24.320028 
	C196.900055,24.251759 198.503067,24.114618 200.390579,23.953138 
	C197.827682,20.793821 199.147919,19.135981 202.215118,18.995762 
	C207.860733,18.737663 213.562439,18.560736 219.165451,19.113445 
	C221.239029,19.317993 223.100525,21.672579 225.620819,23.440987 
	C223.880753,23.820387 222.723740,24.072659 220.594330,24.536953 
	C221.666626,26.343090 222.815247,27.868492 223.440796,29.584566 
	C223.624832,30.089432 222.478729,31.420176 221.665909,31.850586 
	C220.868500,32.272823 219.493927,31.690531 218.779694,32.163605 
	C217.798065,32.813789 216.430206,34.246834 216.623337,34.973663 
	C216.890411,35.978851 218.372635,37.158321 219.483887,37.337753 
	C221.742004,37.702366 224.100281,37.446751 225.535187,37.446751 
	C227.465652,42.530876 229.200424,47.099651 231.204834,52.378551 
	C231.731094,52.506889 233.280792,52.884804 234.501770,53.639404 
	C229.248184,54.413372 232.107117,57.620262 232.056961,60.068794 
	C232.204468,60.841820 232.384369,61.334850 232.777786,62.152008 
	C234.651978,63.342850 236.312653,64.209557 237.991135,65.370285 
	C238.326889,66.369720 238.644821,67.075142 238.962753,67.780563 
M208.162720,40.752632 
	C205.882065,42.985374 204.715927,47.041130 205.372467,48.964199 
	C206.800659,53.147366 209.921829,50.035530 213.244492,51.599545 
	C212.327362,48.641083 211.850983,46.767433 211.162384,44.975319 
	C210.435730,43.084190 209.511642,41.268551 208.662079,39.425331 
	C208.477081,39.023975 208.323349,38.530323 207.998566,38.301807 
	C207.816864,38.173954 207.313446,38.503334 206.954987,38.626694 
	C207.382278,39.132267 207.809570,39.637840 208.162720,40.752632 
z"/>
<path fill="#060606" opacity="1.000000" stroke="none" 
	d="
M138.303970,110.869804 
	C138.725342,110.325531 139.146698,109.781258 140.119415,109.127106 
	C141.118134,108.962730 141.565506,108.908226 142.280777,108.897751 
	C142.637360,108.635506 142.726044,108.329216 142.889679,107.718224 
	C142.946075,107.205139 142.927521,106.996773 142.908966,106.788414 
	C146.110931,106.644081 146.014603,106.608871 147.487747,102.578842 
	C147.752991,101.853195 149.177124,101.551178 151.272720,100.378326 
	C144.422318,100.118301 146.545197,96.181648 146.743118,93.781250 
	C136.951401,92.534508 127.364761,91.313873 117.372887,89.780731 
	C116.967651,89.468224 117.032173,88.990562 117.414345,88.997147 
	C119.002533,88.894302 120.208542,88.784859 121.696480,88.649841 
	C121.016022,87.186684 120.509453,86.097443 120.002884,85.008202 
	C119.690247,83.291878 119.377609,81.575562 119.061745,79.841499 
	C125.743317,75.943947 133.161270,76.944321 140.422012,76.902222 
	C148.535507,76.855179 156.649475,76.891434 166.385834,76.891434 
	C161.631760,79.598503 169.875610,87.322708 159.503693,86.152336 
	C159.543488,86.634026 159.583267,87.115723 159.623062,87.597412 
	C161.898026,89.107605 164.172989,90.617798 166.949860,92.461174 
	C166.799744,94.340225 166.588089,96.989502 166.375412,99.651535 
	C167.776398,99.810562 168.906250,99.938812 171.570709,100.241264 
	C166.939926,104.303848 163.203461,107.581856 159.820602,110.549622 
	C161.754456,111.217140 164.633011,112.210754 167.511581,113.204361 
	C167.386810,113.687515 167.262054,114.170670 167.137283,114.653831 
	C165.836945,115.030212 164.536606,115.406593 162.378464,116.031258 
	C164.180405,116.704323 165.089539,117.043907 166.528687,117.581467 
	C164.202850,119.436676 160.015732,120.214409 164.019043,124.431488 
	C157.741302,126.906013 151.995987,129.836868 145.900314,131.411133 
	C137.577438,133.560608 130.023682,129.418777 122.349533,126.911438 
	C122.794090,122.519180 118.327164,122.236237 116.226616,119.584099 
	C117.337669,118.924843 118.441467,118.269897 120.164352,117.247612 
	C118.188187,116.984505 116.741196,116.791855 115.290764,116.598747 
	C116.849892,110.511734 121.436264,110.714806 126.207626,111.027596 
	C129.357178,111.234062 132.528442,111.109520 136.272797,111.515961 
	C137.186462,113.353226 137.517303,114.807701 137.953918,116.727158 
	C140.779205,116.061005 143.691437,115.374367 147.036880,114.585579 
	C144.899307,110.910591 141.606613,110.879044 138.303970,110.869804 
z"/>
<path fill="#090909" opacity="1.000000" stroke="none" 
	d="
M119.677460,85.246201 
	C120.509453,86.097443 121.016022,87.186684 121.696480,88.649841 
	C120.208542,88.784859 119.002533,88.894302 117.000946,88.950531 
	C113.878395,89.484451 111.551407,90.071594 107.738266,91.033714 
	C110.752998,91.496178 112.377632,91.745407 114.002258,91.994629 
	C114.011108,92.446365 114.019958,92.898094 114.052437,93.927902 
	C114.142082,94.673019 114.208107,94.840057 114.274124,95.007103 
	C113.628670,95.486359 112.983223,95.965622 111.833542,96.734207 
	C110.957314,97.315605 110.585327,97.607674 110.213348,97.899750 
	C110.817467,98.033257 111.421593,98.166763 112.025711,98.300270 
	C112.386917,98.632423 112.748131,98.964584 113.055725,99.900024 
	C113.331230,100.588982 113.660347,100.674644 113.989456,100.760300 
	C114.015625,101.290138 114.041794,101.819977 114.067963,102.349815 
	C112.468376,102.349815 110.868790,102.349815 110.300804,102.349815 
	C110.962929,105.470444 111.817383,108.213089 112.077187,111.010956 
	C112.510323,115.675537 111.833534,120.564163 112.983109,125.006790 
	C114.104385,129.340073 112.356537,130.555893 109.022728,130.721924 
	C103.582375,130.992859 98.118675,130.795120 93.404869,130.795120 
	C92.985985,127.221115 92.605789,123.977219 92.225586,120.733337 
	C90.033463,121.091484 87.841347,121.449631 85.262909,121.884293 
	C84.351341,120.944168 83.826096,119.927513 83.300850,118.910866 
	C85.097893,118.607590 86.894936,118.304314 89.016220,117.974014 
	C94.650429,116.292313 90.813087,111.940948 91.786545,108.978447 
	C92.321068,107.351738 90.876648,105.074753 90.212738,102.689407 
	C90.802513,102.606148 92.603409,102.351906 95.151077,101.992249 
	C93.302719,100.352310 91.816628,99.033798 90.385170,97.763756 
	C91.504181,96.869308 92.764244,95.862114 94.443039,94.515594 
	C96.638039,94.176270 98.414299,94.176270 100.190552,94.176270 
	C100.196877,93.896179 100.203201,93.616089 100.209526,93.336006 
	C98.148598,93.200592 96.087669,93.065186 94.026741,92.929771 
	C92.413101,92.246796 90.799461,91.563820 88.307373,90.509048 
	C90.608414,90.212570 92.100143,90.020378 93.367805,89.857040 
	C92.833115,86.475159 92.049286,83.084511 91.925911,79.669991 
	C91.893806,78.781387 93.882568,77.077148 95.011833,77.016006 
	C100.282150,76.730629 105.576515,76.889450 110.768272,76.889450 
	C113.887306,86.557114 113.887306,86.557114 119.677460,85.246201 
z"/>
<path fill="#070707" opacity="1.000000" stroke="none" 
	d="
M175.277115,124.035629 
	C173.980194,116.908813 176.601624,109.572495 172.718506,102.713997 
	C173.689407,102.571953 175.529846,102.302696 177.910339,101.954422 
	C176.157150,100.352882 174.713791,99.034386 173.565262,97.985199 
	C174.780045,96.489403 176.146393,94.806992 178.126114,92.369308 
	C175.152252,91.847961 173.639343,91.582733 172.126419,91.317505 
	C172.100540,91.042305 172.074661,90.767097 172.048767,90.491898 
	C173.289825,90.229164 174.530899,89.966431 176.627777,89.522522 
	C175.875839,87.200813 175.223221,85.036560 174.473953,82.906303 
	C173.256821,79.445869 174.765457,76.985161 178.385590,76.914284 
	C183.368927,76.816742 188.355606,76.889854 193.737396,76.889854 
	C194.662613,81.087090 195.559097,85.153893 196.547348,89.637070 
	C194.686508,89.923241 193.399597,90.121155 192.112686,90.319061 
	C192.092667,90.596207 192.072632,90.873344 192.052612,91.150490 
	C193.522003,91.463371 194.991379,91.776253 197.830963,92.380890 
	C196.179428,94.655243 194.911285,96.401627 193.635559,98.158455 
	C194.614120,98.978439 196.147873,100.263649 198.184357,101.970123 
	C195.763474,102.270500 193.906876,102.500862 193.273636,102.579437 
	C193.880081,105.557281 194.675888,108.196556 194.908356,110.884560 
	C195.324768,115.699318 194.770325,120.684418 195.807999,125.333527 
	C196.748978,129.549347 194.868210,130.589417 191.762177,130.730957 
	C186.296524,130.980026 180.811340,130.800583 175.496597,130.800583 
	C175.496597,128.593002 175.496597,126.493683 175.277115,124.035629 
z"/>
<path fill="#F1F1F1" opacity="1.000000" stroke="none" 
	d="
M299.118103,52.723251 
	C298.619690,50.953861 298.121277,49.184471 297.450409,46.802811 
	C298.342926,46.450306 300.403564,45.636436 303.174988,44.541843 
	C298.554260,44.049789 294.826019,43.652779 291.879303,42.997349 
	C295.303192,41.867546 299.942047,45.028500 300.066772,39.072136 
	C300.066772,39.072136 300.011902,39.026524 300.349091,38.872551 
	C301.333679,37.628685 301.981110,36.538792 303.021088,34.788036 
	C300.462250,35.306156 298.744629,35.653946 297.027008,36.001740 
	C298.159210,31.860651 301.629578,29.519062 304.418152,26.712736 
	C305.143433,25.982822 306.854279,26.232214 308.516418,25.926552 
	C309.164185,26.140488 309.408020,26.459675 309.914551,26.931858 
	C309.112488,30.812370 308.224304,34.604824 306.890167,38.233288 
	C306.402802,39.558788 304.855804,40.494678 303.761719,41.640266 
	C308.362946,42.327831 305.647003,46.448174 306.463074,49.156525 
	C306.849304,50.438255 306.790802,51.853989 306.631134,53.770927 
	C303.925049,53.796307 301.521576,53.259781 299.118103,52.723251 
z"/>
<path fill="#F1F1F1" opacity="1.000000" stroke="none" 
	d="
M129.493011,37.039200 
	C127.680206,35.482788 126.286507,33.940132 124.822044,32.319141 
	C125.044342,32.292122 126.143166,32.158558 128.082138,32.054672 
	C131.539322,32.066048 134.156342,32.047745 136.773376,32.029442 
	C137.505630,33.115623 138.237900,34.201801 139.023376,35.626999 
	C136.021774,36.328327 132.966949,36.690639 129.493011,37.039200 
z"/>
<path fill="#6C6C6C" opacity="1.000000" stroke="none" 
	d="
M244.756287,21.995457 
	C247.504730,22.003462 249.785797,22.003462 252.160126,22.003462 
	C251.129196,24.948666 251.129196,24.948666 245.605835,25.086327 
	C242.176956,24.500975 239.164108,23.892006 236.151276,23.283037 
	C236.135925,22.851175 236.120590,22.419313 236.105240,21.987452 
	C238.833130,21.987452 241.561020,21.987452 244.756287,21.995457 
z"/>
<path fill="#969696" opacity="1.000000" stroke="none" 
	d="
M64.817032,24.994871 
	C60.788486,24.399113 57.230946,23.841784 53.673401,23.284454 
	C53.673897,22.855425 53.674389,22.426394 53.674881,21.997362 
	C56.144249,21.997362 58.613621,21.997362 61.517662,21.997211 
	C64.603043,22.753183 68.180260,20.392727 70.726433,24.728300 
	C68.367195,24.860613 66.827614,24.946957 64.817032,24.994871 
z"/>
<path fill="#F8F8F8" opacity="1.000000" stroke="none" 
	d="
M137.870850,110.941238 
	C141.606613,110.879044 144.899307,110.910591 147.036880,114.585579 
	C143.691437,115.374367 140.779205,116.061005 137.953918,116.727158 
	C137.517303,114.807701 137.186462,113.353226 136.714127,111.530655 
	C136.861008,111.112587 137.149368,111.062630 137.870850,110.941238 
z"/>
<path fill="#6C6C6C" opacity="1.000000" stroke="none" 
	d="
M43.524086,21.992569 
	C46.282185,21.998566 48.586086,21.998566 51.293594,21.998566 
	C50.939732,23.175352 50.686153,24.018635 50.085785,24.826286 
	C44.849609,24.387217 39.960228,23.983776 35.070843,23.580338 
	C35.051521,23.049084 35.032196,22.517828 35.012875,21.986574 
	C37.698544,21.986574 40.384212,21.986574 43.524086,21.992569 
z"/>
<path fill="#969696" opacity="1.000000" stroke="none" 
	d="
M265.531555,25.035042 
	C261.771088,24.459293 258.392120,23.828606 255.013168,23.197918 
	C255.033920,22.797625 255.054672,22.397329 255.075424,21.997036 
	C257.406708,21.997036 259.738007,21.997036 262.513000,21.997139 
	C265.539917,21.997242 268.123138,21.997242 270.706360,21.997242 
	C270.776886,22.394264 270.847382,22.791286 270.917908,23.188307 
	C269.249634,23.785574 267.581360,24.382839 265.531555,25.035042 
z"/>
<path fill="#F1F1F1" opacity="1.000000" stroke="none" 
	d="
M232.089340,59.788792 
	C232.107117,57.620262 229.248184,54.413372 234.542770,53.992287 
	C235.477356,54.255066 236.042206,54.541645 236.822174,55.327679 
	C237.810974,56.582874 238.584656,57.338608 239.358322,58.094345 
	C237.284805,58.461025 235.211304,58.827702 232.829620,59.561512 
	C232.521439,59.928642 232.089340,59.788792 232.089340,59.788792 
z"/>
<path fill="#BFBFBF" opacity="1.000000" stroke="none" 
	d="
M58.463505,64.976906 
	C55.120708,64.491211 52.089870,63.932747 49.059029,63.374283 
	C49.049675,62.930824 49.040321,62.487366 49.030968,62.043907 
	C52.414188,62.043907 55.797413,62.043907 59.634087,62.160316 
	C59.650177,63.152523 59.212818,64.028328 58.463505,64.976906 
z"/>
<path fill="#6C6C6C" opacity="1.000000" stroke="none" 
	d="
M79.804642,21.996248 
	C82.678856,22.500189 85.146660,22.996176 87.367126,23.737526 
	C83.562485,23.982887 80.005180,23.982887 76.447876,23.982887 
	C76.384438,23.566818 76.320999,23.150749 76.257561,22.734680 
	C77.304451,22.485886 78.351349,22.237089 79.804642,21.996248 
z"/>
<path fill="#8E8E8E" opacity="1.000000" stroke="none" 
	d="
M274.739410,31.090918 
	C274.758728,32.103477 274.508270,33.153027 273.877167,33.865444 
	C273.326904,34.486622 272.347534,34.727642 270.531281,35.668171 
	C270.184692,35.201099 269.350891,34.077461 268.272034,32.740440 
	C270.119415,32.011852 272.211823,31.496655 274.739410,31.090918 
z"/>
<path fill="#121212" opacity="1.000000" stroke="none" 
	d="
M239.715836,58.073151 
	C238.584656,57.338608 237.810974,56.582874 237.112381,55.456123 
	C238.640350,54.619892 240.093246,54.154671 241.419495,53.334438 
	C242.964157,53.745205 244.635452,54.510983 246.280533,55.264755 
	C244.028946,56.275784 242.051147,57.163872 239.715836,58.073151 
z"/>
<path fill="#BFBFBF" opacity="1.000000" stroke="none" 
	d="
M259.860260,64.808014 
	C256.650208,64.379036 253.440170,63.950066 250.230118,63.521088 
	C250.184113,63.026299 250.138092,62.531513 250.092087,62.036724 
	C253.455811,62.036724 256.819550,62.036724 260.634216,62.154274 
	C261.043427,62.728207 261.001678,63.184586 260.610229,64.053757 
	C260.127106,64.580360 259.993683,64.694183 259.860260,64.808014 
z"/>
<path fill="#6C6C6C" opacity="1.000000" stroke="none" 
	d="
M281.545166,21.975521 
	C284.265625,22.427076 286.557770,22.855818 288.689880,23.592875 
	C285.031097,23.901190 281.532288,23.901190 278.033508,23.901190 
	C277.982239,23.463871 277.931000,23.026554 277.879730,22.589235 
	C278.958771,22.377060 280.037811,22.164883 281.545166,21.975521 
z"/>
<path fill="#121212" opacity="1.000000" stroke="none" 
	d="
M299.044983,53.062027 
	C301.521576,53.259781 303.925049,53.796307 306.645935,54.122707 
	C306.981689,54.693951 307.000000,55.475323 307.001831,56.647442 
	C305.916321,57.018791 304.847321,56.999393 303.379272,56.933594 
	C300.981445,56.473091 298.982635,56.058994 297.038086,55.656136 
	C297.632965,54.962330 298.302399,54.181568 299.044983,53.062027 
z"/>
<path fill="#F6F6F6" opacity="1.000000" stroke="none" 
	d="
M58.290825,114.614639 
	C57.319893,114.573601 56.615658,114.293648 55.911423,114.013695 
	C55.848404,113.653694 55.785381,113.293686 55.722363,112.933678 
	C57.900272,112.297928 60.078178,111.662170 62.631615,111.106461 
	C63.387035,114.848999 60.267921,113.629639 58.290825,114.614639 
z"/>
<path fill="#121212" opacity="1.000000" stroke="none" 
	d="
M294.170471,64.600990 
	C292.428986,64.330688 290.716522,63.719475 288.990540,62.727776 
	C290.867371,62.292648 292.757812,62.238010 294.648224,62.183372 
	C294.498657,62.875610 294.349091,63.567844 294.170471,64.600990 
z"/>
<path fill="#BFBFBF" opacity="1.000000" stroke="none" 
	d="
M270.949615,62.663971 
	C272.725616,62.190674 274.535583,62.109421 276.345581,62.028168 
	C276.334686,62.773487 276.323822,63.518810 276.235931,64.585693 
	C274.433807,64.290176 272.708710,63.673100 270.949615,62.663971 
z"/>
<path fill="#8E8E8E" opacity="1.000000" stroke="none" 
	d="
M62.007805,31.866844 
	C61.151127,32.252773 60.315865,32.252178 59.480606,32.251579 
	C60.043079,31.154327 60.605545,30.057070 61.527519,28.976425 
	C63.153812,28.787933 64.420601,28.582827 66.494026,28.247116 
	C64.508308,29.685081 63.268764,30.582701 62.007805,31.866844 
z"/>
<path fill="#BFBFBF" opacity="1.000000" stroke="none" 
	d="
M69.942307,62.657440 
	C71.504982,62.194016 73.104889,62.005196 74.680687,62.127342 
	C74.961128,62.149082 75.141495,63.461960 75.250290,64.550865 
	C73.412102,64.294769 71.691704,63.666454 69.942307,62.657440 
z"/>
<path fill="#F8F8F8" opacity="1.000000" stroke="none" 
	d="
M114.195221,91.744438 
	C112.377632,91.745407 110.752998,91.496178 107.738266,91.033714 
	C111.551407,90.071594 113.878395,89.484451 116.618774,88.943939 
	C117.032173,88.990562 116.967651,89.468224 116.993591,89.707825 
	C116.142426,90.463036 115.265305,90.978638 114.195221,91.744438 
z"/>
<path fill="#8E8E8E" opacity="1.000000" stroke="none" 
	d="
M73.672455,31.037256 
	C71.970016,31.786697 69.824905,32.446518 67.376907,32.888496 
	C69.125946,32.096313 71.177856,31.521973 73.672455,31.037256 
z"/>
<path fill="#8E8E8E" opacity="1.000000" stroke="none" 
	d="
M263.064362,31.807827 
	C262.219574,32.191700 261.451477,32.213779 260.683380,32.235859 
	C261.187988,31.147770 261.692596,30.059683 262.549927,28.982889 
	C264.014771,29.089590 265.126953,29.184998 265.912323,29.252371 
	C265.062653,29.924952 264.101837,30.685493 263.064362,31.807827 
z"/>
<path fill="#121212" opacity="1.000000" stroke="none" 
	d="
M239.215302,67.835899 
	C238.644821,67.075142 238.326889,66.369720 238.400787,65.381744 
	C239.878433,65.202950 240.964249,65.306702 242.050079,65.410454 
	C241.540176,66.201996 241.030273,66.993546 240.245651,67.897949 
	C239.803238,67.970947 239.635544,67.931091 239.215302,67.835899 
z"/>
<path fill="#F8F8F8" opacity="1.000000" stroke="none" 
	d="
M142.012878,108.853714 
	C141.565506,108.908226 141.118134,108.962730 140.334137,108.967682 
	C140.818771,108.050255 141.640015,107.182396 142.685120,106.551476 
	C142.927521,106.996773 142.946075,107.205139 142.715607,107.813644 
	C142.249252,108.380219 142.098007,108.593536 142.012878,108.853714 
z"/>
<path fill="#F6F6F6" opacity="1.000000" stroke="none" 
	d="
M94.022362,93.225632 
	C96.087669,93.065186 98.148598,93.200592 100.209526,93.336006 
	C100.203201,93.616089 100.196877,93.896179 100.190552,94.176270 
	C98.414299,94.176270 96.638039,94.176270 94.452118,94.144516 
	C94.034286,93.915680 94.026131,93.718582 94.022362,93.225632 
z"/>
<path fill="#F8F8F8" opacity="1.000000" stroke="none" 
	d="
M114.671494,95.016907 
	C114.208107,94.840057 114.142082,94.673019 114.158966,94.249619 
	C116.144493,93.993263 118.047119,93.993263 119.949745,93.993263 
	C119.953896,94.337746 119.958038,94.682228 119.962189,95.026711 
	C118.331078,95.026711 116.699966,95.026711 114.671494,95.016907 
z"/>
<path fill="#121212" opacity="1.000000" stroke="none" 
	d="
M280.599304,71.111038 
	C280.450012,71.575836 279.905914,71.989540 279.201050,72.608612 
	C278.380341,72.581207 277.720367,72.348450 277.060394,72.115692 
	C278.108398,71.763779 279.156433,71.411865 280.599304,71.111038 
z"/>
<path fill="#F8F8F8" opacity="1.000000" stroke="none" 
	d="
M112.026718,98.083389 
	C111.421593,98.166763 110.817467,98.033257 110.213348,97.899750 
	C110.585327,97.607674 110.957314,97.315605 111.664642,97.011513 
	C112.006340,97.288597 112.015587,97.577606 112.026718,98.083389 
z"/>
<path fill="#121212" opacity="1.000000" stroke="none" 
	d="
M258.313660,71.891785 
	C257.988678,71.816734 257.992065,71.353600 258.018066,71.123489 
	C258.615814,71.084633 259.187592,71.275887 259.759338,71.467140 
	C259.385773,71.633705 259.012207,71.800270 258.313660,71.891785 
z"/>
<path fill="#121212" opacity="1.000000" stroke="none" 
	d="
M300.210999,70.778473 
	C300.007355,70.488327 300.031586,70.271957 300.153992,69.743698 
	C300.314423,69.905273 300.376648,70.378754 300.210999,70.778473 
z"/>
<path fill="#121212" opacity="1.000000" stroke="none" 
	d="
M259.873657,64.779388 
	C259.993683,64.694183 260.127106,64.580360 260.510223,64.383736 
	C260.676086,64.543831 260.511383,64.703148 260.093262,64.738098 
	C259.920715,64.697311 259.887024,64.750763 259.873657,64.779388 
z"/>
<path fill="#F6F6F6" opacity="1.000000" stroke="none" 
	d="
M60.004547,96.459938 
	C59.806728,96.457184 59.602261,96.237015 59.660168,95.915443 
	C59.922539,95.814049 59.997898,96.242516 60.004547,96.459938 
z"/>
<path fill="#F8F8F8" opacity="1.000000" stroke="none" 
	d="
M113.914742,100.600624 
	C113.660347,100.674644 113.331230,100.588982 113.145508,100.260864 
	C113.521477,100.095528 113.705185,100.236374 113.914742,100.600624 
z"/>
<path fill="#090909" opacity="1.000000" stroke="none" 
	d="
M84.295731,125.010918 
	C84.076111,124.697739 84.233322,124.443054 84.669662,124.125504 
	C84.774628,124.347549 84.682549,124.683144 84.295731,125.010918 
z"/>
<path fill="#F1F1F1" opacity="1.000000" stroke="none" 
	d="
M97.811119,35.174232 
	C96.529167,33.859253 98.021873,29.950830 99.942688,29.223291 
	C101.153267,28.764763 102.228600,27.949150 103.364601,27.293716 
	C103.164169,26.921230 102.963737,26.548744 102.763306,26.176258 
	C104.396111,26.176258 106.028915,26.176258 107.852661,26.176258 
	C107.852661,28.018581 107.852661,29.787971 107.852661,31.834785 
	C106.608543,31.982193 105.378365,32.127949 102.874100,32.424660 
	C108.594307,34.315517 112.828796,36.224590 105.005974,39.486427 
	C106.502998,40.870380 108.016945,42.269974 109.878815,43.991219 
	C107.723503,44.254990 105.957458,44.471119 105.115593,44.574146 
	C105.658188,47.562943 107.491524,52.233601 106.446533,53.004990 
	C104.074127,54.756233 100.285767,54.589279 97.186913,55.180393 
	C96.924095,54.328243 96.901726,54.255722 96.879356,54.183201 
	C97.013130,54.274029 97.146912,54.364857 97.280685,54.455685 
	C97.792778,52.557381 98.304878,50.659077 98.889038,48.493637 
	C97.789505,48.253521 96.561234,47.985291 94.074135,47.442154 
	C97.089104,46.334618 99.049278,45.614552 101.009453,44.894485 
	C100.983002,44.612118 100.956551,44.329746 100.930092,44.047379 
	C97.568367,44.047379 94.205292,44.085659 90.847694,43.967983 
	C90.603409,43.959423 90.398781,42.818970 90.941544,42.108467 
	C97.238754,42.100143 97.238754,42.100143 98.585480,39.676311 
	C98.682121,39.312618 98.778763,38.948929 99.169403,38.170547 
	C100.113136,37.026333 100.762863,36.296806 101.762657,35.174232 
	C100.010818,35.174232 98.910965,35.174232 97.811119,35.174232 
z"/>
<path fill="#DADADA" opacity="1.000000" stroke="none" 
	d="
M136.673767,31.697279 
	C134.156342,32.047745 131.539322,32.066048 128.484299,32.051674 
	C128.280838,28.843775 131.016403,27.260626 133.720108,28.857616 
	C134.791397,29.490396 135.629761,30.517529 136.673767,31.697279 
z"/>
<path fill="#8E8E8E" opacity="1.000000" stroke="none" 
	d="
M97.551117,35.418610 
	C98.910965,35.174232 100.010818,35.174232 101.762657,35.174232 
	C100.762863,36.296806 100.113136,37.026333 99.162430,37.887550 
	C97.237465,37.875877 95.613472,37.732513 93.989479,37.589149 
	C93.975670,37.208736 93.961853,36.828320 93.948036,36.447906 
	C95.062401,36.186268 96.176758,35.924625 97.551117,35.418610 
z"/>
<path fill="#BFBFBF" opacity="1.000000" stroke="none" 
	d="
M59.037682,57.896118 
	C56.152866,58.448479 53.268055,59.000839 50.383240,59.553200 
	C50.293549,59.202171 50.203861,58.851147 50.114170,58.500118 
	C51.903755,58.299805 53.693336,58.099491 55.653763,57.880054 
	C55.177876,57.282700 54.760368,56.758625 54.242573,56.108665 
	C55.644547,56.038921 56.942085,55.974377 58.569519,56.290314 
	C58.945507,57.079239 58.991592,57.487682 59.037682,57.896118 
z"/>
<path fill="#8E8E8E" opacity="1.000000" stroke="none" 
	d="
M98.203995,39.816360 
	C97.238754,42.100143 97.238754,42.100143 91.272148,41.919266 
	C93.165451,41.203049 95.493973,40.579727 98.203995,39.816360 
z"/>
<path fill="#FDFDFD" opacity="1.000000" stroke="none" 
	d="
M59.410522,57.935539 
	C58.991592,57.487682 58.945507,57.079239 58.961792,56.367405 
	C59.684010,56.237293 60.343857,56.410576 61.003704,56.583855 
	C60.596928,57.047558 60.190147,57.511261 59.410522,57.935539 
z"/>
<path fill="#F3F3F3" opacity="1.000000" stroke="none" 
	d="
M339.666504,43.187927 
	C339.510193,45.096703 338.984222,46.963791 338.432373,48.922852 
	C338.240906,48.839809 339.517914,49.338661 339.499176,49.393436 
	C338.765167,51.535187 338.256897,53.886028 336.966797,55.663429 
	C335.950043,57.064182 333.773102,58.753529 332.431213,58.515129 
	C330.549683,58.180851 328.079193,56.505596 327.450684,54.813362 
	C326.379272,51.928875 326.699707,48.556278 326.123169,45.446625 
	C325.846954,43.956787 324.856293,42.599415 324.420837,41.674210 
	C325.297821,40.159027 326.612854,38.631863 327.106506,36.874031 
	C328.038696,33.554642 330.840485,32.072136 333.049713,33.373318 
	C336.028595,35.127808 340.203857,37.294342 338.274963,42.396156 
	C338.234863,42.502228 338.939606,42.889931 339.666504,43.187927 
z"/>
<path fill="#BFBFBF" opacity="1.000000" stroke="none" 
	d="
M358.124268,32.371162 
	C356.683472,30.835691 355.583771,29.471731 354.484100,28.107773 
	C354.733521,27.702473 354.982971,27.297171 355.232422,26.891870 
	C358.682861,28.175299 362.133301,29.458727 365.583771,30.742155 
	C365.449615,31.342327 365.315460,31.942499 365.181335,32.542671 
	C362.942657,32.542671 360.704010,32.542671 358.124268,32.371162 
z"/>
<path fill="#3B3B3B" opacity="1.000000" stroke="none" 
	d="
M242.299164,65.090576 
	C240.964249,65.306702 239.878433,65.202950 238.382965,65.087730 
	C236.312653,64.209557 234.651978,63.342850 233.112076,62.124489 
	C233.836411,61.191635 234.440002,60.610435 235.043579,60.029236 
	C239.635681,60.029236 244.227783,60.029236 248.819870,60.029236 
	C248.850754,60.581612 248.881638,61.133991 248.912521,61.686367 
	C246.791092,62.714481 244.669662,63.742592 242.299164,65.090576 
z"/>
<path fill="#BFBFBF" opacity="1.000000" stroke="none" 
	d="
M278.921082,54.012707 
	C279.750946,53.659855 280.638397,52.910770 281.400879,53.021595 
	C285.020905,53.547794 288.606873,54.308350 291.885254,54.925285 
	C289.841980,58.961742 285.564575,56.495457 281.528198,56.630043 
	C280.744049,55.820110 280.463715,55.341949 280.136902,54.932709 
	C280.090424,55.001629 280.154297,54.856285 280.001709,54.644676 
	C279.539764,54.292950 279.230408,54.152828 278.921082,54.012707 
z"/>
<path fill="#232323" opacity="1.000000" stroke="none" 
	d="
M265.535614,56.028404 
	C266.607483,61.879299 260.390930,57.339317 259.438904,60.304783 
	C258.600616,59.190269 257.762360,58.075756 257.409912,56.590313 
	C260.442383,56.155724 262.989014,56.092064 265.535614,56.028404 
z"/>
<path fill="#969696" opacity="1.000000" stroke="none" 
	d="
M299.743896,39.321167 
	C299.942047,45.028500 295.303192,41.867546 292.220520,42.764313 
	C292.601654,41.930553 293.277649,40.659473 294.277740,40.306389 
	C295.879181,39.740997 297.695496,39.784222 299.743896,39.321167 
z"/>
<path fill="#969696" opacity="1.000000" stroke="none" 
	d="
M296.652130,35.989761 
	C298.744629,35.653946 300.462250,35.306156 303.021088,34.788036 
	C301.981110,36.538792 301.333679,37.628685 300.383972,38.879959 
	C298.804718,38.633129 297.489441,38.307003 296.284790,37.744144 
	C296.056915,37.637672 296.268463,36.590755 296.652130,35.989761 
z"/>
<path fill="#232323" opacity="1.000000" stroke="none" 
	d="
M280.183411,54.863789 
	C280.463715,55.341949 280.744049,55.820110 281.082764,56.611816 
	C280.355042,57.157375 279.537415,57.652008 278.789886,57.562382 
	C277.540771,57.412621 276.336365,56.889511 275.113159,56.523567 
	C276.115417,55.657337 277.117645,54.791103 278.520477,53.968788 
	C279.230408,54.152828 279.539764,54.292950 279.659454,54.727955 
	C278.638458,55.111198 277.807098,55.199551 276.975739,55.287903 
	C277.054108,55.579678 277.132507,55.871449 277.210876,56.163219 
	C278.201721,55.730076 279.192566,55.296932 280.183411,54.863789 
z"/>
<path fill="#BFBFBF" opacity="1.000000" stroke="none" 
	d="
M265.419586,55.758095 
	C262.989014,56.092064 260.442383,56.155724 257.427063,56.229141 
	C256.411102,56.051323 255.863907,55.863747 253.956955,55.210072 
	C256.373260,55.099480 257.315979,55.056332 258.886658,55.002808 
	C259.688324,54.932877 259.862091,54.873322 260.035828,54.813770 
	C260.768951,54.847805 261.502045,54.881844 262.930145,54.959381 
	C264.086609,54.994656 264.548096,54.986427 265.009583,54.978199 
	C265.107544,55.148064 265.205536,55.317924 265.419586,55.758095 
z"/>
<path fill="#121212" opacity="1.000000" stroke="none" 
	d="
M234.698151,60.013668 
	C234.440002,60.610435 233.836411,61.191635 232.898544,61.800354 
	C232.384369,61.334850 232.204468,60.841820 232.056961,60.068794 
	C232.089340,59.788792 232.521439,59.928642 232.746368,59.959805 
	C233.431763,59.993343 233.892242,59.995720 234.698151,60.013668 
z"/>
<path fill="#232323" opacity="1.000000" stroke="none" 
	d="
M264.972931,54.680931 
	C264.548096,54.986427 264.086609,54.994656 263.293213,54.900597 
	C263.220093,54.304779 263.478821,53.811256 263.737579,53.317734 
	C264.137146,53.673042 264.536713,54.028351 264.972931,54.680931 
z"/>
<path fill="#121212" opacity="1.000000" stroke="none" 
	d="
M252.401840,60.262836 
	C252.063690,60.452625 251.677200,60.410400 251.290695,60.368176 
	C251.385742,60.098484 251.480804,59.828793 251.575851,59.559101 
	C251.835068,59.716343 252.094269,59.873585 252.401840,60.262836 
z"/>
<path fill="#232323" opacity="1.000000" stroke="none" 
	d="
M268.831238,58.993019 
	C268.604248,59.221050 268.376495,59.223988 268.148743,59.226929 
	C268.150452,59.077137 268.130188,58.802116 268.157349,58.797352 
	C268.376709,58.758835 268.604980,58.771137 268.831238,58.993019 
z"/>
<path fill="#232323" opacity="1.000000" stroke="none" 
	d="
M260.015991,54.560822 
	C259.862091,54.873322 259.688324,54.932877 259.244812,54.936588 
	C259.138885,54.430614 259.302734,53.980476 259.466583,53.530342 
	C259.643097,53.789516 259.819641,54.048691 260.015991,54.560822 
z"/>
<path fill="#232323" opacity="1.000000" stroke="none" 
	d="
M266.535156,60.541012 
	C266.475098,60.579205 266.595215,60.502819 266.535156,60.541012 
z"/>
<path fill="#F3F3F3" opacity="1.000000" stroke="none" 
	d="
M447.560242,41.603378 
	C448.620087,43.713043 449.641724,45.317772 447.596191,47.421345 
	C446.675751,48.367889 446.356506,50.126400 446.217072,51.560505 
	C445.861176,55.220234 445.336487,58.710361 440.605804,58.712688 
	C437.076080,58.714424 434.415833,54.421364 434.724548,50.028599 
	C434.940125,46.961037 436.274017,43.418732 432.347687,41.706738 
	C433.367096,40.508423 434.451965,39.270500 435.494232,37.997669 
	C436.576721,36.675686 437.981323,34.023582 438.614990,34.201191 
	C441.506104,35.011547 445.834198,33.604565 446.662445,38.442482 
	C446.829254,39.416744 447.362488,40.328266 447.560242,41.603378 
z"/>
<path fill="#DADADA" opacity="1.000000" stroke="none" 
	d="
M208.199799,40.448025 
	C207.809570,39.637840 207.382278,39.132267 206.954987,38.626694 
	C207.313446,38.503334 207.816864,38.173954 207.998566,38.301807 
	C208.323349,38.530323 208.477081,39.023975 208.662079,39.425331 
	C209.511642,41.268551 210.435730,43.084190 211.162384,44.975319 
	C211.850983,46.767433 212.327362,48.641083 213.244492,51.599545 
	C209.921829,50.035530 206.800659,53.147366 205.372467,48.964199 
	C204.715927,47.041130 205.882065,42.985374 208.199799,40.448025 
z"/>
<path fill="#FDFDFD" opacity="1.000000" stroke="none" 
	d="
M142.280777,108.897758 
	C142.098007,108.593536 142.249252,108.380219 142.640656,108.118355 
	C142.726044,108.329216 142.637360,108.635506 142.280777,108.897758 
z"/>
<path fill="#050505" opacity="1.000000" stroke="none" 
	d="
M280.136902,54.932709 
	C279.192566,55.296932 278.201721,55.730076 277.210876,56.163219 
	C277.132507,55.871449 277.054108,55.579678 276.975739,55.287903 
	C277.807098,55.199551 278.638458,55.111198 279.812073,54.939564 
	C280.154297,54.856285 280.090424,55.001629 280.136902,54.932709 
z"/>
</svg>