<svg version="1.1" id="Layer_1" xmlns="http://www.w3.org/2000/svg" xmlns:xlink="http://www.w3.org/1999/xlink" x="0px" y="0px"
	 width="100%" viewBox="0 0 500 150" enable-background="new 0 0 500 150" xml:space="preserve">
<path fill="#020202" opacity="1.000000" stroke="none" 
	d="
M329.000000,151.000000 
	C219.333374,151.000000 110.166748,151.000000 1.000088,151.000000 
	C1.000059,101.000053 1.000059,51.000114 1.000029,1.000128 
	C167.666550,1.000085 334.333099,1.000085 500.999756,1.000043 
	C500.999817,50.999866 500.999817,100.999733 500.999908,150.999802 
	C443.833344,151.000000 386.666656,151.000000 329.000000,151.000000 
M260.982025,63.637352 
	C261.022217,63.187569 261.062408,62.737782 261.988678,62.201817 
	C264.958588,62.230640 267.928497,62.259464 270.973206,63.074039 
	C272.703156,63.682144 274.433075,64.290253 276.881195,65.123367 
	C278.645660,66.464310 280.410156,67.805252 282.174622,69.146202 
	C281.155487,69.841324 280.136383,70.536438 278.476196,71.056175 
	C277.998291,71.448486 277.520355,71.840797 277.042450,72.233109 
	C277.700012,72.427338 278.357605,72.621559 279.926178,72.989944 
	C286.613007,72.236519 293.299835,71.483086 300.472473,70.869514 
	C300.398224,70.384445 300.323975,69.899376 300.432495,68.733185 
	C298.335236,67.469788 296.237976,66.206390 294.215607,64.246002 
	C294.390747,63.555733 294.565918,62.865459 294.741058,62.175194 
	C292.821259,62.223194 290.901489,62.271198 288.127930,62.147610 
	C286.812988,62.147610 285.498077,62.147610 284.183136,62.147610 
	C286.629517,60.877308 289.130585,60.946823 291.476837,60.377945 
	C295.364960,59.435219 299.153473,58.081612 303.780090,56.994530 
	C304.846649,57.013992 305.913208,57.033459 307.216705,57.830460 
	C308.501556,60.673466 309.069305,64.322464 311.198334,66.216660 
	C319.383820,73.499321 329.212311,75.043182 339.859070,73.112129 
	C350.683075,71.148941 356.457031,65.175179 357.842377,53.793739 
	C358.027832,52.269981 358.694000,50.804737 359.167389,49.212002 
	C358.819244,49.097439 358.051758,48.844864 357.292389,48.594955 
	C358.727478,47.057613 359.992004,45.703007 361.256531,44.348400 
	C360.797302,44.313755 360.338104,44.279110 359.878906,44.244469 
	C359.096069,41.342266 358.313232,38.440067 357.541656,35.579685 
	C364.374268,35.579685 370.412415,35.579685 377.240601,35.579685 
	C376.553589,39.039345 376.022308,41.714840 375.406311,44.816826 
	C375.240448,44.746956 376.055634,45.090355 376.864044,45.430901 
	C374.360016,52.292931 375.130371,54.517105 380.337555,55.543159 
	C379.148651,57.263371 377.979736,58.954647 376.994598,60.380062 
	C377.542419,61.841583 378.815186,63.569168 378.625977,65.118164 
	C378.332458,67.521248 377.042633,69.802628 375.859497,72.984680 
	C382.404572,72.984680 387.863617,73.203217 393.280426,72.821617 
	C394.538208,72.733002 395.976471,70.775452 396.745728,69.359528 
	C397.608612,67.771233 397.806610,65.821709 398.513672,63.220966 
	C398.144867,62.769466 397.143433,61.543491 396.141998,60.317516 
	C396.555420,60.412445 396.968872,60.507378 397.382294,60.602310 
	C397.723816,59.102371 398.762939,56.573753 398.300140,56.259914 
	C393.050171,52.699688 396.971680,47.097214 395.159851,42.733181 
	C394.344696,40.769753 395.930237,37.809643 396.520569,34.826290 
	C399.041534,34.826290 402.720459,35.925739 404.097260,34.612206 
	C407.677338,31.196665 411.323303,32.665649 415.188843,33.786083 
	C414.840546,36.677162 416.788269,40.520214 412.858795,41.082771 
	C413.441528,42.681049 414.201843,44.006969 414.385590,45.408463 
	C415.008972,50.163761 415.184906,54.989643 416.032745,59.698368 
	C416.433014,61.921436 417.438751,64.580429 419.081207,65.946983 
	C430.228668,75.222038 442.701324,75.975342 455.793854,70.716316 
	C463.260803,67.716995 468.198792,55.188461 465.917480,49.250576 
	C467.223694,47.187344 469.260803,45.360893 468.927338,44.239048 
	C467.869263,40.679249 465.926758,37.382339 464.694305,34.765537 
	C464.771393,33.069920 465.350128,31.491308 464.800293,30.651884 
	C460.772522,24.502512 455.503326,19.941845 447.973755,18.602753 
	C440.568176,17.285715 433.508636,18.421875 426.445953,20.914690 
	C420.634399,22.965919 418.051788,27.352423 416.159851,32.612793 
	C416.065918,32.873913 415.337311,32.906754 414.709534,32.291130 
	C412.255829,26.597166 405.943115,29.219873 401.167694,25.851349 
	C406.475739,25.851349 410.841949,25.851349 415.208160,25.851349 
	C415.207764,25.579412 415.207367,25.307474 415.206970,25.035538 
	C412.863373,24.868279 410.519806,24.701019 407.226318,24.465965 
	C409.392853,22.664865 410.762939,21.525875 412.679047,19.932959 
	C410.349091,19.484461 408.758240,18.920044 407.164520,18.911955 
	C393.354065,18.841858 379.542847,18.839912 365.732727,18.939163 
	C364.748260,18.946239 363.615631,19.744102 362.821289,20.469351 
	C361.013611,22.119812 359.666077,24.523920 357.599243,25.584394 
	C354.204254,27.326344 351.229126,25.289755 348.976440,22.811672 
	C341.877472,15.002484 315.933502,17.058928 309.636444,26.764494 
	C309.401276,26.458372 309.166107,26.152252 308.761810,25.120459 
	C305.804504,24.124424 302.847198,23.128389 300.335938,22.282581 
	C299.155060,21.102558 298.136475,19.172752 296.933289,19.049847 
	C293.000336,18.648092 288.979523,18.682920 285.038940,19.049362 
	C283.924866,19.152962 282.969757,20.966036 281.081390,21.946905 
	C279.999603,22.158134 278.917786,22.369364 277.835999,22.580591 
	C277.884644,23.023026 277.933289,23.465460 277.981934,23.907894 
	C281.479889,23.907894 284.977844,23.907894 288.465393,24.790289 
	C286.262024,25.474401 284.058655,26.158512 281.855286,26.842627 
	C281.845490,26.771671 281.835693,26.700716 281.825897,26.629761 
	C281.946014,26.715427 282.090027,26.781647 282.179749,26.892025 
	C282.277313,27.012075 282.400024,27.288422 282.382599,27.299860 
	C281.379608,27.958151 280.398010,28.662144 279.339325,29.219175 
	C277.974976,29.937035 276.547821,30.535591 274.280060,30.967251 
	C272.199493,31.480160 270.118927,31.993067 267.200256,32.385170 
	C265.796051,32.299332 264.391815,32.213490 263.147156,31.405914 
	C264.110413,30.656790 265.073669,29.907665 265.915039,29.253340 
	C265.131592,29.186562 264.016144,29.091480 262.843872,28.316137 
	C262.998962,27.881054 263.058594,27.370897 263.329254,27.026699 
	C263.873718,26.334364 264.533173,25.732479 265.910858,24.981127 
	C267.581573,24.405895 269.252258,23.830662 270.922974,23.255430 
	C270.888489,22.836355 270.854004,22.417282 270.819519,21.998207 
	C268.200806,21.998207 265.582062,21.998207 262.884949,21.206671 
	C255.546616,18.896763 248.115982,18.142538 240.168350,19.355377 
	C242.174026,20.417395 243.674606,21.211956 244.245468,21.986164 
	C241.529327,21.986164 238.813187,21.986164 236.097061,21.986164 
	C236.108353,22.735380 236.119659,23.484596 236.130951,24.233812 
	C241.334427,24.233812 246.537918,24.233812 251.158218,24.716642 
	C243.557602,24.839069 239.587494,27.092913 237.667526,32.270824 
	C239.673981,32.408585 241.708984,32.548309 243.743988,32.688030 
	C243.771591,33.016735 243.799194,33.345444 243.826797,33.674149 
	C242.695602,33.891521 241.564423,34.108894 240.433243,34.326267 
	C240.413315,34.616207 240.393402,34.906151 240.373489,35.196091 
	C243.123016,35.485214 245.872559,35.774334 248.622101,36.063457 
	C248.610733,36.413719 248.599365,36.763981 248.587997,37.114243 
	C245.893799,37.326630 243.199585,37.539017 240.051361,37.787193 
	C240.960922,38.809082 241.493744,39.407711 242.608765,40.660435 
	C238.928772,41.461445 235.914703,42.117508 232.900650,42.773567 
	C232.952057,43.146851 233.003464,43.520130 233.054871,43.893410 
	C236.872589,43.893410 240.690308,43.893410 244.508041,43.893410 
	C243.745926,45.221054 242.755981,45.596569 241.774063,45.992043 
	C240.625015,46.454826 239.482986,46.935005 237.868652,47.601326 
	C243.334442,48.487881 243.334442,48.487881 241.462708,53.704708 
	C240.032761,54.163578 238.602829,54.622448 236.603073,54.818573 
	C236.043671,54.537266 235.484268,54.255962 234.852890,53.263554 
	C233.305145,52.870697 231.757385,52.477840 231.261276,52.351913 
	C229.229492,47.106777 227.475830,42.579582 225.483871,37.437244 
	C225.355728,37.437244 224.220840,37.437309 223.085968,37.437222 
	C222.253967,37.437157 221.315292,37.685802 220.612289,37.384567 
	C219.177032,36.769558 217.868607,35.858566 216.507950,35.069481 
	C217.726624,34.048290 218.954208,33.037502 220.161316,32.002808 
	C221.233154,31.084059 223.224930,30.040924 223.140366,29.226049 
	C222.976685,27.648916 221.637817,26.193754 220.692413,24.522572 
	C222.684097,24.102015 223.871841,23.851217 225.380432,23.532669 
	C218.109375,18.869549 218.109299,18.851231 212.321625,18.873201 
	C198.566376,18.925421 200.791077,18.323092 198.730072,21.797546 
	C199.233749,22.449249 199.702454,23.055702 200.563309,24.169571 
	C198.180756,24.169571 196.542191,24.169571 194.736816,24.169571 
	C194.265884,26.268030 194.362686,28.631578 193.242844,29.998140 
	C192.232498,31.231073 189.825638,31.236408 188.153748,32.033066 
	C186.359314,32.888119 184.703751,34.034653 182.987595,35.053993 
	C184.474213,35.872742 186.038330,36.580246 187.423096,37.545170 
	C188.546204,38.327778 190.455887,39.681892 190.286362,40.329693 
	C189.483505,43.397461 188.086823,46.309814 186.901718,49.277546 
	C187.345032,49.389557 187.788330,49.501568 188.231644,49.613579 
	C187.155045,50.347836 186.078445,51.082088 184.617020,52.078812 
	C186.452423,52.601536 187.567123,52.919003 188.681824,53.236469 
	C182.305527,53.014904 182.868835,58.808895 180.918854,62.133339 
	C180.485916,62.871437 181.765854,64.614220 182.424377,66.330254 
	C181.477875,67.777420 180.141708,69.820351 178.805542,71.863281 
	C186.886520,71.569748 195.691635,77.125679 201.023651,67.391632 
	C201.313477,66.862549 202.006134,66.207924 202.519730,66.200554 
	C208.376251,66.116585 214.234436,66.147186 219.536636,66.147186 
	C219.215271,68.800423 219.007050,70.519524 218.707352,72.993797 
	C224.597412,72.993797 229.889221,73.206413 235.135635,72.813210 
	C236.176544,72.735199 237.036880,70.328743 237.994049,69.005859 
	C238.296448,68.587944 238.642975,68.201988 239.445282,67.942734 
	C239.445282,67.942734 239.934875,68.025322 239.844742,68.759590 
	C240.356689,70.168121 240.888489,72.805084 241.377533,72.797180 
	C246.919052,72.707535 252.454025,72.213081 258.649200,71.973709 
	C259.026154,71.804214 259.403137,71.634720 259.780090,71.465225 
	C259.201721,71.273384 258.623383,71.081543 257.989868,70.120399 
	C258.635101,68.321510 259.280334,66.522621 260.282654,64.787102 
	C260.538849,64.710136 260.699432,64.541916 260.982025,63.637352 
M113.857216,100.423637 
	C113.730652,100.220886 113.552467,100.086655 113.136681,99.281708 
	C112.767082,98.940498 112.397476,98.599297 112.032104,97.844124 
	C112.019775,97.568420 112.009300,97.292641 112.358200,96.470795 
	C113.012009,95.983849 113.665817,95.496902 115.107254,95.034233 
	C116.721077,95.034233 118.334908,95.034233 119.948730,95.034233 
	C119.944191,94.686386 119.939644,94.338531 119.935104,93.990685 
	C118.047127,93.990685 116.159157,93.990685 114.030685,93.348953 
	C114.023445,92.892159 114.016197,92.435364 114.399033,91.490585 
	C115.269592,90.983841 116.140152,90.477104 117.737350,90.107147 
	C127.324455,91.333725 136.911560,92.560303 146.416595,93.776382 
	C146.416595,95.322227 146.416595,97.518929 146.416595,99.661781 
	C147.692688,99.883766 148.855392,100.086029 151.243607,100.501472 
	C149.818390,101.333778 149.411942,101.600433 148.979980,101.815910 
	C148.457794,102.076385 147.567184,102.170288 147.432831,102.548370 
	C145.986938,106.617012 146.019165,106.628464 142.380554,106.241348 
	C141.585999,107.130638 140.791458,108.019928 139.550842,109.217293 
	C139.129074,109.771469 138.707321,110.325645 137.444778,111.012543 
	C137.165009,111.059700 136.885223,111.106865 135.718781,111.119293 
	C131.558121,111.095764 127.305351,111.608673 123.259972,110.913933 
	C118.118668,110.030968 116.967735,114.091217 114.553261,116.635109 
	C115.713867,116.879120 116.884415,117.125221 117.954315,117.350159 
	C117.305298,118.968658 116.793724,120.244415 116.282158,121.520164 
	C119.172829,122.367882 122.328796,122.917610 122.382759,126.951546 
	C130.206223,129.554672 137.920029,133.666962 146.434647,131.350586 
	C152.356094,129.739655 157.946198,126.910736 163.809753,124.576004 
	C160.044739,118.742851 165.979401,119.310722 167.798767,117.176308 
	C166.272049,116.905159 164.878342,116.657631 163.484634,116.410103 
	C163.502396,116.161911 163.520172,115.913719 163.537933,115.665527 
	C164.723068,115.348778 165.908203,115.032028 167.093338,114.715279 
	C167.231918,114.251091 167.370483,113.786903 167.509048,113.322708 
	C164.660370,112.278297 161.811691,111.233887 158.359406,109.968178 
	C164.209991,108.667488 167.709427,105.097992 170.005615,100.155899 
	C162.802505,99.754463 168.350830,94.379486 167.266541,92.418800 
	C164.322449,90.607491 162.020630,89.191330 159.718811,87.775169 
	C159.553085,87.364983 159.387344,86.954796 159.221603,86.544609 
	C168.806015,87.087288 162.755936,80.307312 165.310364,76.868996 
	C156.984787,76.868996 149.203659,76.840195 141.422852,76.877197 
	C133.828827,76.913307 126.081512,75.864403 119.052803,79.832970 
	C119.370506,81.565926 119.685356,83.283272 119.343048,85.463051 
	C110.911140,88.423553 112.787872,80.824692 110.867912,76.869644 
	C105.535156,76.869644 100.228531,76.709068 94.946655,76.999046 
	C93.829987,77.060356 91.862671,78.812714 91.903320,79.712952 
	C92.057014,83.116730 92.875885,86.490486 93.430832,89.786316 
	C91.887222,90.018913 90.481720,90.230698 89.076218,90.442490 
	C89.122780,90.787262 89.169334,91.132034 89.215897,91.476807 
	C90.743103,91.646469 92.270302,91.816139 95.298843,92.152596 
	C93.327179,94.713921 91.997475,96.441299 90.720657,98.099968 
	C91.753151,99.005859 93.264450,100.331848 95.130913,101.969452 
	C92.616028,102.322334 90.793297,102.578094 88.398895,102.914062 
	C92.424294,105.551872 93.153976,110.694511 91.054146,117.331291 
	C90.367294,116.957191 89.680443,116.583084 88.087967,115.954582 
	C78.067535,115.581139 68.047112,115.207695 58.570515,114.373390 
	C60.289925,113.651131 63.370781,114.832123 63.933182,111.048897 
	C70.252144,111.048897 76.571098,111.048897 82.143250,111.048897 
	C82.451881,107.464493 82.737488,105.058777 82.847389,102.645065 
	C82.990959,99.491737 82.474815,96.817932 78.349174,96.822334 
	C72.237320,96.828857 66.125313,96.707642 60.011951,96.255493 
	C60.011951,96.255493 59.948738,95.875389 59.770531,95.163025 
	C59.208321,94.366402 58.646111,93.569778 57.516392,91.969025 
	C61.197800,91.969025 63.966782,91.969025 66.735764,91.969025 
	C80.775528,91.969025 80.775528,91.969025 90.234261,86.049179 
	C88.166389,85.884819 86.098511,85.720451 84.058945,85.558334 
	C84.467636,76.880074 84.460922,76.873085 76.002312,76.872627 
	C70.678947,76.872337 65.355591,76.872574 60.032227,76.872574 
	C53.436012,76.872574 46.839798,76.872574 40.299957,76.872574 
	C40.299957,80.253258 40.299957,82.976227 40.299957,85.727081 
	C42.610123,85.879791 44.642345,86.014137 45.622856,86.078949 
	C43.772022,88.182915 40.281235,90.327515 40.021538,92.810120 
	C39.401100,98.741188 40.303513,104.831558 40.598682,111.018044 
	C39.614620,111.805847 38.425171,112.758072 36.119568,114.603844 
	C40.455967,114.942680 43.484070,115.179291 46.512177,115.415894 
	C46.370247,115.883232 46.228313,116.350563 46.086380,116.817902 
	C47.396019,117.378952 48.705658,117.940010 51.332222,119.065239 
	C46.366932,119.065239 42.797390,119.065239 39.850296,119.065239 
	C39.850296,122.574730 39.850296,125.672539 39.850296,128.886841 
	C37.756454,129.033630 35.733349,129.175461 32.888023,129.374939 
	C34.317066,130.184067 35.020496,130.937027 35.696465,130.913116 
	C52.049515,130.334961 68.554619,132.919617 84.732307,128.624527 
	C84.491989,127.427902 84.251671,126.231285 84.606071,125.036171 
	C84.699181,124.694405 84.792290,124.352631 85.003922,123.320816 
	C84.969292,122.869911 84.934662,122.419006 85.714905,121.758659 
	C87.666626,121.370575 89.618340,120.982491 92.044983,120.499977 
	C92.508469,124.364578 92.879265,127.456360 93.283249,130.824860 
	C98.063644,130.824860 103.523308,130.888977 108.980392,130.797806 
	C111.710770,130.752197 113.788406,129.798492 113.486626,126.440315 
	C112.968430,120.673752 112.629784,114.887215 111.944016,109.141502 
	C111.686516,106.984062 110.671432,104.917038 109.939415,102.612625 
	C110.842995,102.560982 112.441345,102.482491 114.029488,102.310043 
	C114.072304,102.305389 114.004814,101.284935 113.857216,100.423637 
M69.959259,63.054661 
	C71.685310,63.674618 73.411369,64.294571 75.827415,65.160088 
	C79.951851,66.258598 80.334740,66.676193 80.909668,70.589333 
	C78.814026,71.043419 76.741425,71.492516 74.668831,71.941612 
	C74.764191,72.483994 74.859558,73.026375 74.954926,73.568756 
	C83.182884,72.784393 91.410851,72.000023 99.638809,71.215660 
	C99.798943,70.738121 99.959068,70.260574 100.119202,69.783035 
	C97.762131,67.409683 95.405067,65.036331 92.314102,61.924011 
	C89.852188,61.924011 86.229660,61.924011 82.607124,61.924011 
	C82.606651,61.743549 82.606178,61.563091 82.605705,61.382629 
	C90.430779,59.652882 98.255859,57.923138 106.416252,56.119267 
	C106.971527,62.644192 107.398209,67.658035 107.838364,72.830231 
	C112.740372,72.830231 118.222321,72.915382 123.699722,72.794426 
	C126.451523,72.733658 128.446106,71.813629 128.036957,68.288734 
	C127.388161,62.699173 127.145493,57.063198 126.539772,51.467560 
	C126.301102,49.262699 125.548660,47.113457 124.966026,44.669853 
	C125.810860,44.546146 127.663780,44.274830 130.028473,43.928574 
	C128.052719,42.212276 126.536552,40.895222 125.098694,39.646194 
	C126.410568,38.798676 127.755074,37.930077 129.835846,37.083889 
	C131.753860,37.171581 133.689697,37.445976 135.582062,37.265182 
	C136.476898,37.179691 137.288498,36.222752 138.847412,35.747879 
	C140.343323,38.314114 141.874725,40.860489 143.325027,43.452248 
	C144.736710,45.975006 146.063400,48.545292 147.432785,51.091816 
	C147.619934,51.439831 147.838226,51.771095 148.042099,52.110115 
	C147.815430,52.213848 147.588776,52.317577 147.362106,52.421310 
	C147.858154,52.398170 148.387421,52.251339 148.844330,52.373974 
	C150.535294,52.827812 152.202377,53.370590 154.450119,54.053680 
	C151.597290,55.517555 146.822495,54.814896 149.950668,59.899742 
	C150.503616,60.798584 148.866455,62.846416 148.787308,64.391663 
	C148.716690,65.770607 149.401962,67.188263 149.668671,68.250412 
	C147.139511,68.906288 145.223633,69.403122 142.541092,70.098770 
	C151.383560,73.519447 159.356201,73.877647 167.425003,71.430641 
	C166.087799,71.125427 164.750610,70.820213 163.413406,70.514999 
	C163.396576,70.180931 163.379745,69.846855 163.362930,69.512787 
	C165.171738,69.205132 166.980560,68.897484 168.883606,68.573807 
	C168.725128,63.109760 167.664001,57.530823 170.857971,52.475487 
	C174.268875,47.076801 175.160751,40.091030 179.999863,36.965000 
	C179.813385,33.754166 179.663391,31.171228 179.506775,28.474485 
	C181.479065,28.219305 183.048172,28.016291 184.617264,27.813276 
	C184.639343,27.590553 184.661407,27.367828 184.683487,27.145105 
	C183.487854,26.865957 182.292236,26.586811 181.109329,26.310635 
	C182.502167,23.965431 183.669006,22.000759 184.869064,19.980158 
	C174.825211,16.327005 165.883240,18.914759 161.477203,26.523741 
	C162.645813,26.748970 163.792145,26.969906 164.938461,27.190844 
	C164.926651,27.375242 164.914841,27.559641 164.903030,27.744040 
	C163.057251,28.026377 161.211456,28.308712 159.887604,28.511213 
	C159.769318,30.273539 159.686813,31.503069 159.604294,32.732597 
	C158.707642,32.618774 157.664764,32.760998 156.939590,32.346893 
	C153.768204,30.535919 150.688965,28.563610 147.816605,26.797607 
	C149.207947,26.263382 151.660934,25.321527 154.113907,24.379671 
	C154.013580,24.047947 153.913254,23.716221 153.812912,23.384497 
	C152.286377,23.167593 150.759857,22.950689 148.224960,22.590511 
	C150.117523,21.374815 151.265717,20.637274 152.413895,19.899733 
	C152.185242,19.346146 151.956573,18.792559 151.727921,18.238974 
	C145.262070,18.947388 138.774078,19.512701 132.352341,20.506222 
	C131.292007,20.670267 130.521835,22.709702 129.617554,23.882442 
	C129.947968,24.179636 130.278366,24.476828 130.608765,24.774021 
	C129.404816,25.042660 128.200851,25.311296 126.459015,25.699953 
	C126.222298,23.455139 126.007492,21.418047 125.641281,17.945116 
	C116.538597,19.186438 107.478477,20.421955 98.336426,21.668648 
	C98.080177,21.267756 97.384521,19.192623 96.640495,19.175135 
	C91.713020,19.059311 86.768929,19.301931 81.848572,19.671730 
	C81.231476,19.718109 80.721794,21.193642 79.351738,21.986959 
	C78.311310,22.238752 77.270882,22.490547 76.230453,22.742342 
	C76.295670,23.156937 76.360886,23.571533 76.426102,23.986130 
	C79.980225,23.986130 83.534340,23.986130 87.130623,24.822132 
	C83.813179,26.292156 80.479729,27.727596 77.187370,29.251816 
	C76.101753,29.754414 75.122314,30.486368 73.207115,30.940954 
	C71.169922,31.517365 69.132721,32.093777 66.282196,32.388332 
	C64.849045,32.336449 63.415890,32.284569 62.020138,31.455099 
	C63.267544,30.565350 64.514954,29.675602 66.532257,28.236700 
	C64.446991,28.578011 63.169685,28.787075 61.892056,28.211836 
	C62.717861,27.125858 63.543667,26.039883 65.244621,25.040407 
	C66.909195,25.040407 68.573761,25.040407 71.134743,25.040407 
	C68.341110,20.398920 64.726952,22.721336 61.857338,21.227432 
	C54.472134,19.040247 47.015858,17.992355 39.007923,19.398308 
	C40.970642,20.428022 42.465580,21.212320 43.053310,21.984566 
	C40.355129,21.984566 37.656944,21.984566 34.958763,21.984566 
	C34.982178,22.423054 35.005589,22.861542 35.029003,23.300030 
	C38.076786,23.899319 41.124569,24.498606 43.893379,25.841465 
	C41.237984,27.686560 38.582584,29.531654 35.927189,31.376749 
	C36.152676,31.694948 36.378162,32.013145 36.603649,32.331345 
	C38.535294,32.433609 40.466942,32.535873 42.398586,32.638142 
	C42.421589,32.900013 42.444592,33.161884 42.467590,33.423756 
	C41.372120,33.814301 40.276649,34.204842 37.915112,35.046753 
	C42.056068,35.559250 44.724846,35.889549 47.393620,36.219845 
	C47.352718,36.566441 47.311813,36.913033 47.270912,37.259624 
	C44.558983,37.384933 41.847054,37.510242 38.696075,37.655838 
	C39.723949,38.872635 40.288719,39.541210 41.106194,40.508930 
	C37.779125,41.419308 34.891392,42.209473 32.003654,42.999641 
	C32.083099,43.389420 32.162548,43.779202 32.241993,44.168983 
	C35.929581,44.168983 39.617165,44.168983 43.304752,44.168983 
	C43.338482,44.385525 43.372215,44.602070 43.405949,44.818611 
	C41.377144,45.627857 39.348339,46.437103 37.319534,47.246349 
	C46.601734,47.011841 37.766102,53.262688 41.104954,54.910263 
	C38.819813,55.155460 37.258820,55.322956 34.521770,55.616646 
	C36.338005,56.649109 37.122925,57.095310 38.391964,57.816711 
	C35.791653,58.187092 33.857292,58.462616 31.922934,58.738144 
	C31.926153,59.313511 31.929373,59.888878 31.932594,60.464245 
	C36.875984,60.464245 41.819374,60.464245 46.762764,60.464245 
	C46.756569,60.937546 46.750378,61.410847 46.744183,61.884151 
	C45.178585,62.011650 43.612988,62.139153 41.138729,62.055950 
	C37.737774,62.055950 34.336823,62.055950 30.935867,62.055950 
	C30.940939,62.483994 30.946011,62.912037 30.951082,63.340076 
	C34.103710,63.915619 37.256340,64.491165 40.128635,65.893234 
	C39.642410,68.146339 39.156185,70.399445 38.767899,72.198738 
	C45.625847,72.198738 51.638443,72.198738 56.826378,72.198738 
	C57.381977,69.197624 57.765293,67.127113 58.772728,64.909462 
	C59.217010,64.037514 59.661293,63.165573 60.991329,62.209862 
	C63.959393,62.237789 66.927452,62.265717 69.959259,63.054661 
M175.891830,99.560806 
	C176.360138,100.352814 176.828430,101.144821 177.331970,101.996429 
	C175.437134,102.290962 173.608246,102.575241 172.610718,102.730293 
	C173.385635,103.873840 174.832687,105.024986 174.862152,106.211327 
	C175.063751,114.327766 174.967880,122.451591 174.967880,130.811432 
	C180.818726,130.811432 186.444641,130.979462 192.054092,130.748230 
	C195.404327,130.610123 196.669693,129.206268 195.767288,125.211906 
	C194.719498,120.574135 195.358566,115.577713 194.956375,110.762787 
	C194.732956,108.087891 193.879623,105.465614 193.263199,102.601212 
	C194.014908,102.500687 195.874557,102.251999 198.187485,101.942696 
	C196.185455,100.236610 194.641891,98.921196 193.764114,98.173172 
	C195.040939,96.334312 196.284531,94.543312 197.829605,92.318123 
	C195.005280,91.731812 193.508240,91.421036 192.011185,91.110260 
	C192.030029,90.879807 192.048889,90.649345 192.067734,90.418884 
	C193.387924,90.161591 194.708099,89.904305 196.508011,89.553513 
	C195.592911,85.213921 194.753647,81.233910 193.832779,76.866882 
	C188.788055,76.866882 183.812042,76.808113 178.838089,76.884209 
	C174.299042,76.953651 173.284195,79.181206 175.151871,83.523094 
	C175.950912,85.380684 175.690186,87.694145 175.904495,89.738403 
	C174.344391,90.000923 173.164246,90.199509 171.984100,90.398094 
	C171.963425,90.661652 171.942764,90.925209 171.922104,91.188759 
	C173.552307,91.555542 175.182526,91.922333 178.153427,92.590759 
	C176.067001,94.935776 174.604263,96.579819 173.051132,98.325455 
	C173.915802,98.527130 174.694626,98.708786 175.891830,99.560806 
z"/>
<path fill="#F7F7F7" opacity="1.000000" stroke="none" 
	d="
M129.099579,37.061481 
	C127.755074,37.930077 126.410568,38.798676 125.098694,39.646194 
	C126.536552,40.895222 128.052719,42.212276 130.028473,43.928574 
	C127.663780,44.274830 125.810860,44.546146 124.966026,44.669853 
	C125.548660,47.113457 126.301102,49.262699 126.539772,51.467560 
	C127.145493,57.063198 127.388161,62.699173 128.036957,68.288734 
	C128.446106,71.813629 126.451523,72.733658 123.699722,72.794426 
	C118.222321,72.915382 112.740372,72.830231 107.838364,72.830231 
	C107.398209,67.658035 106.971527,62.644192 106.416252,56.119267 
	C98.255859,57.923138 90.430779,59.652882 82.605705,61.382629 
	C82.606178,61.563091 82.606651,61.743549 82.607124,61.924011 
	C86.229660,61.924011 89.852188,61.924011 92.314102,61.924011 
	C95.405067,65.036331 97.762131,67.409683 100.119202,69.783035 
	C99.959068,70.260574 99.798943,70.738121 99.638809,71.215660 
	C91.410851,72.000023 83.182884,72.784393 74.954926,73.568756 
	C74.859558,73.026375 74.764191,72.483994 74.668831,71.941612 
	C76.741425,71.492516 78.814026,71.043419 80.909668,70.589333 
	C80.334740,66.676193 79.951851,66.258598 75.602386,64.668076 
	C75.136162,63.459507 74.941124,62.148605 74.646049,62.125687 
	C73.076363,62.003750 71.481598,62.204559 69.895515,62.293640 
	C66.927452,62.265717 63.959393,62.237789 60.095726,62.128044 
	C55.818142,62.046230 52.436157,62.046230 49.054173,62.046230 
	C49.062542,62.485664 49.070915,62.925098 49.079285,63.364536 
	C52.102394,63.928555 55.125504,64.492577 58.148613,65.056595 
	C57.765293,67.127113 57.381977,69.197624 56.826378,72.198738 
	C51.638443,72.198738 45.625847,72.198738 38.767899,72.198738 
	C39.156185,70.399445 39.642410,68.146339 40.587753,65.467796 
	C41.380379,64.117126 41.713882,63.191891 42.047390,62.266655 
	C43.612988,62.139153 45.178585,62.011650 46.744183,61.884151 
	C46.750378,61.410847 46.756569,60.937546 46.762764,60.464245 
	C41.819374,60.464245 36.875984,60.464245 31.932594,60.464245 
	C31.929373,59.888878 31.926153,59.313511 31.922934,58.738144 
	C33.857292,58.462616 35.791653,58.187092 38.391964,57.816711 
	C37.122925,57.095310 36.338005,56.649109 34.521770,55.616646 
	C37.258820,55.322956 38.819813,55.155460 41.104954,54.910263 
	C37.766102,53.262688 46.601734,47.011841 37.319534,47.246349 
	C39.348339,46.437103 41.377144,45.627857 43.405949,44.818611 
	C43.372215,44.602070 43.338482,44.385525 43.304752,44.168983 
	C39.617165,44.168983 35.929581,44.168983 32.241993,44.168983 
	C32.162548,43.779202 32.083099,43.389420 32.003654,42.999641 
	C34.891392,42.209473 37.779125,41.419308 41.106194,40.508930 
	C40.288719,39.541210 39.723949,38.872635 38.696075,37.655838 
	C41.847054,37.510242 44.558983,37.384933 47.270912,37.259624 
	C47.311813,36.913033 47.352718,36.566441 47.393620,36.219845 
	C44.724846,35.889549 42.056068,35.559250 37.915112,35.046753 
	C40.276649,34.204842 41.372120,33.814301 42.467590,33.423756 
	C42.444592,33.161884 42.421589,32.900013 42.398586,32.638142 
	C40.466942,32.535873 38.535294,32.433609 36.603649,32.331345 
	C36.378162,32.013145 36.152676,31.694948 35.927189,31.376749 
	C38.582584,29.531654 41.237984,27.686560 44.454292,25.502823 
	C50.414185,25.172102 50.414185,25.172102 51.483585,21.606750 
	C49.005123,21.735191 46.482819,21.865906 43.960514,21.996618 
	C42.465580,21.212320 40.970642,20.428022 39.007923,19.398308 
	C47.015858,17.992355 54.472134,19.040247 61.475677,21.613369 
	C58.635307,21.999306 56.176594,21.999306 53.717884,21.999306 
	C53.720146,22.434700 53.722408,22.870092 53.724670,23.305487 
	C57.272938,23.854959 60.821201,24.404430 64.369469,24.953903 
	C63.543667,26.039883 62.717861,27.125858 61.533726,28.584673 
	C60.615452,30.060757 60.055508,31.164001 59.495560,32.267246 
	C60.324619,32.255726 61.153675,32.244205 61.982735,32.232685 
	C63.415890,32.284569 64.849045,32.336449 66.991669,32.741913 
	C69.832199,32.434807 71.963264,31.774128 74.094322,31.113449 
	C75.122314,30.486368 76.101753,29.754414 77.187370,29.251816 
	C80.479729,27.727596 83.813179,26.292156 87.357147,24.162235 
	C85.109886,23.003891 82.636116,22.505442 80.162338,22.006996 
	C80.721794,21.193642 81.231476,19.718109 81.848572,19.671730 
	C86.768929,19.301931 91.713020,19.059311 96.640495,19.175135 
	C97.384521,19.192623 98.080177,21.267756 98.336426,21.668648 
	C107.478477,20.421955 116.538597,19.186438 125.641281,17.945116 
	C126.007492,21.418047 126.222298,23.455139 126.459015,25.699953 
	C128.200851,25.311296 129.404816,25.042660 130.608765,24.774021 
	C130.278366,24.476828 129.947968,24.179636 129.617554,23.882442 
	C130.521835,22.709702 131.292007,20.670267 132.352341,20.506222 
	C138.774078,19.512701 145.262070,18.947388 151.727921,18.238974 
	C151.956573,18.792559 152.185242,19.346146 152.413895,19.899733 
	C151.265717,20.637274 150.117523,21.374815 148.224960,22.590511 
	C150.759857,22.950689 152.286377,23.167593 153.812912,23.384497 
	C153.913254,23.716221 154.013580,24.047947 154.113907,24.379671 
	C151.660934,25.321527 149.207947,26.263382 147.816605,26.797607 
	C150.688965,28.563610 153.768204,30.535919 156.939590,32.346893 
	C157.664764,32.760998 158.707642,32.618774 159.604294,32.732597 
	C159.686813,31.503069 159.769318,30.273539 159.887604,28.511213 
	C161.211456,28.308712 163.057251,28.026377 164.903030,27.744040 
	C164.914841,27.559641 164.926651,27.375242 164.938461,27.190844 
	C163.792145,26.969906 162.645813,26.748970 161.477203,26.523741 
	C165.883240,18.914759 174.825211,16.327005 184.869064,19.980158 
	C183.669006,22.000759 182.502167,23.965431 181.109329,26.310635 
	C182.292236,26.586811 183.487854,26.865957 184.683487,27.145105 
	C184.661407,27.367828 184.639343,27.590553 184.617264,27.813276 
	C183.048172,28.016291 181.479065,28.219305 179.506775,28.474485 
	C179.663391,31.171228 179.813385,33.754166 179.999863,36.965000 
	C175.160751,40.091030 174.268875,47.076801 170.857971,52.475487 
	C167.664001,57.530823 168.725128,63.109760 168.883606,68.573807 
	C166.980560,68.897484 165.171738,69.205132 163.362930,69.512787 
	C163.379745,69.846855 163.396576,70.180931 163.413406,70.514999 
	C164.750610,70.820213 166.087799,71.125427 167.425003,71.430641 
	C159.356201,73.877647 151.383560,73.519447 142.541092,70.098770 
	C145.223633,69.403122 147.139511,68.906288 149.668671,68.250412 
	C149.401962,67.188263 148.716690,65.770607 148.787308,64.391663 
	C148.866455,62.846416 150.503616,60.798584 149.950668,59.899742 
	C146.822495,54.814896 151.597290,55.517555 154.450119,54.053680 
	C152.202377,53.370590 150.535294,52.827812 148.844330,52.373974 
	C148.387421,52.251339 147.858154,52.398170 147.362106,52.421310 
	C147.588776,52.317577 147.815430,52.213848 148.042099,52.110115 
	C147.838226,51.771095 147.619934,51.439831 147.432785,51.091816 
	C146.063400,48.545292 144.736710,45.975006 143.325027,43.452248 
	C141.874725,40.860489 140.343323,38.314114 138.564819,35.387653 
	C137.713913,33.934635 137.145599,32.841843 136.411652,31.421417 
	C134.472183,28.461910 131.948868,27.888792 129.211456,29.025719 
	C128.533234,29.307400 128.436890,30.990063 127.664909,32.027176 
	C126.162689,32.154026 125.068642,32.282433 123.974602,32.410843 
	C123.991867,32.699257 124.009125,32.987671 124.026390,33.276085 
	C125.332375,33.492874 126.638359,33.709660 127.943161,33.943699 
	C127.941986,33.960953 127.918434,33.968571 128.259567,34.242439 
	C128.766983,35.364700 128.933289,36.213089 129.099579,37.061481 
M59.783691,57.976196 
	C60.186810,57.598190 60.589931,57.220188 60.993053,56.842186 
	C60.338509,56.584179 59.683964,56.326176 58.247303,55.912323 
	C56.954941,55.974415 55.662582,56.036507 54.271152,56.103359 
	C54.769512,56.766140 55.163723,57.290417 55.615921,57.891808 
	C53.638622,58.096638 51.845852,58.282356 50.053082,58.468071 
	C50.106678,58.815960 50.160275,59.163853 50.213867,59.511742 
	C53.156960,58.973476 56.100048,58.435211 59.783691,57.976196 
M97.907211,44.052284 
	C98.932983,44.052284 99.958755,44.052284 100.984535,44.052284 
	C101.001030,44.339874 101.017525,44.627460 101.034012,44.915051 
	C99.069366,45.617790 97.104713,46.320534 94.287598,47.328197 
	C96.653961,48.011650 97.945312,48.384621 99.155312,48.734093 
	C98.333023,50.800159 97.644562,52.530804 96.952789,54.260113 
	C96.942505,54.285839 96.891045,54.295097 96.858803,54.312038 
	C100.328140,54.558475 103.939941,54.333050 106.639832,52.647194 
	C107.477257,52.124294 105.839043,47.636669 105.266609,44.606167 
	C105.776878,44.537346 107.626793,44.287842 110.010399,43.966358 
	C108.020119,42.244217 106.515076,40.941944 104.909058,39.552296 
	C112.734009,36.315628 108.816177,34.357536 103.313133,32.602715 
	C105.456711,32.134537 106.775177,31.846571 107.865021,31.608540 
	C107.865021,29.573286 107.865021,27.945635 107.865021,26.215607 
	C106.074692,26.215607 104.453918,26.215607 102.833145,26.215607 
	C102.183228,27.956232 101.167725,28.798244 100.000610,29.236612 
	C97.588356,30.142666 96.313423,33.705627 97.780579,35.844555 
	C96.680580,36.110119 95.605118,36.369755 93.591324,36.855919 
	C95.966904,37.449715 97.323303,37.788757 98.679703,38.127800 
	C98.800797,38.694214 98.921883,39.260632 99.042976,39.827045 
	C95.763451,40.961399 92.483925,42.095757 89.204399,43.230110 
	C89.259293,43.504166 89.314178,43.778225 89.369072,44.052280 
	C91.937973,44.052280 94.506874,44.052280 97.907211,44.052284 
z"/>
<path fill="#FAFAFA" opacity="1.000000" stroke="none" 
	d="
M415.067993,32.875744 
	C411.323303,32.665649 407.677338,31.196665 404.097260,34.612206 
	C402.720459,35.925739 399.041534,34.826290 396.520569,34.826290 
	C395.930237,37.809643 394.344696,40.769753 395.159851,42.733181 
	C396.971680,47.097214 393.050171,52.699688 398.300140,56.259914 
	C398.762939,56.573753 397.723816,59.102371 397.382294,60.602310 
	C396.968872,60.507378 396.555420,60.412445 396.141998,60.317516 
	C397.143433,61.543491 398.144867,62.769466 398.513672,63.220966 
	C397.806610,65.821709 397.608612,67.771233 396.745728,69.359528 
	C395.976471,70.775452 394.538208,72.733002 393.280426,72.821617 
	C387.863617,73.203217 382.404572,72.984680 375.859497,72.984680 
	C377.042633,69.802628 378.332458,67.521248 378.625977,65.118164 
	C378.815186,63.569168 377.542419,61.841583 376.994598,60.380062 
	C377.979736,58.954647 379.148651,57.263371 380.337555,55.543159 
	C375.130371,54.517105 374.360016,52.292931 376.864044,45.430901 
	C376.055634,45.090355 375.240448,44.746956 375.406311,44.816826 
	C376.022308,41.714840 376.553589,39.039345 377.240601,35.579685 
	C370.412415,35.579685 364.374268,35.579685 357.541656,35.579685 
	C358.313232,38.440067 359.096069,41.342266 359.878906,44.244469 
	C360.338104,44.279110 360.797302,44.313755 361.256531,44.348400 
	C359.992004,45.703007 358.727478,47.057613 357.292389,48.594955 
	C358.051758,48.844864 358.819244,49.097439 359.167389,49.212002 
	C358.694000,50.804737 358.027832,52.269981 357.842377,53.793739 
	C356.457031,65.175179 350.683075,71.148941 339.859070,73.112129 
	C329.212311,75.043182 319.383820,73.499321 311.198334,66.216660 
	C309.069305,64.322464 308.501556,60.673466 307.111847,57.046555 
	C306.989838,55.472534 306.972687,54.682419 306.936951,53.541599 
	C306.762177,51.833424 306.791260,50.421471 306.411377,49.129791 
	C305.612640,46.413933 308.235504,42.357616 303.763947,41.610672 
	C304.859802,40.451458 306.395294,39.509533 306.879852,38.183571 
	C308.202423,34.564213 309.081635,30.782831 310.136475,27.065628 
	C315.933502,17.058928 341.877472,15.002484 348.976440,22.811672 
	C351.229126,25.289755 354.204254,27.326344 357.599243,25.584394 
	C359.666077,24.523920 361.013611,22.119812 362.821289,20.469351 
	C363.615631,19.744102 364.748260,18.946239 365.732727,18.939163 
	C379.542847,18.839912 393.354065,18.841858 407.164520,18.911955 
	C408.758240,18.920044 410.349091,19.484461 412.679047,19.932959 
	C410.762939,21.525875 409.392853,22.664865 407.226318,24.465965 
	C410.519806,24.701019 412.863373,24.868279 415.206970,25.035538 
	C415.207367,25.307474 415.207764,25.579412 415.208160,25.851349 
	C410.841949,25.851349 406.475739,25.851349 401.167694,25.851349 
	C405.943115,29.219873 412.255829,26.597166 414.854004,32.631912 
	C414.998474,32.972698 415.067993,32.875744 415.067993,32.875744 
M331.993286,33.133274 
	C330.387451,34.473965 328.622894,35.669266 327.222656,37.198219 
	C325.943695,38.594727 325.059174,40.352470 324.121643,41.768539 
	C328.259888,42.712536 326.488220,46.597687 326.307068,49.394459 
	C326.060272,53.204021 328.036163,57.714695 331.124664,58.413902 
	C335.904205,59.495949 336.978607,56.295353 337.781891,52.653572 
	C338.048859,51.443214 338.812592,50.342434 339.350922,49.187958 
	C338.835846,49.045506 338.212799,48.873180 337.983459,48.809750 
	C338.857758,47.137825 339.760284,45.411949 340.662811,43.686077 
	C336.857391,42.854820 339.255859,39.092033 337.616455,37.244320 
	C336.963562,36.508492 336.320496,35.743465 335.563782,35.125465 
	C334.657013,34.384937 333.633453,33.787388 331.993286,33.133274 
M355.443573,29.077559 
	C357.531830,33.806736 361.393829,32.341312 365.364319,32.186630 
	C362.002960,28.825451 358.460114,27.608580 355.443573,29.077559 
z"/>
<path fill="#FAFAFA" opacity="1.000000" stroke="none" 
	d="
M265.145203,25.093279 
	C264.533173,25.732479 263.873718,26.334364 263.329254,27.026699 
	C263.058594,27.370897 262.998962,27.881054 262.520203,28.640717 
	C261.701447,30.068913 261.206421,31.172529 260.711365,32.276146 
	C261.470123,32.226650 262.228851,32.177151 262.987610,32.127651 
	C264.391815,32.213490 265.796051,32.299332 267.853760,32.666328 
	C269.248779,34.206688 269.990295,35.465881 270.549469,36.415386 
	C272.174805,34.905922 272.851685,34.399055 273.371674,33.763763 
	C274.030365,32.958935 274.561554,32.049728 275.147736,31.185535 
	C276.547821,30.535591 277.974976,29.937035 279.339325,29.219175 
	C280.398010,28.662144 281.379608,27.958151 282.382599,27.299860 
	C282.400024,27.288422 282.277313,27.012075 282.179749,26.892025 
	C282.090027,26.781647 281.946014,26.715427 281.825897,26.629761 
	C281.835693,26.700716 281.845490,26.771671 281.855286,26.842625 
	C284.058655,26.158512 286.262024,25.474401 288.643250,24.049774 
	C286.527985,22.871197 284.234833,22.433136 281.941711,21.995083 
	C282.969757,20.966036 283.924866,19.152962 285.038940,19.049362 
	C288.979523,18.682920 293.000336,18.648092 296.933289,19.049847 
	C298.136475,19.172752 299.155060,21.102558 300.335938,22.282581 
	C302.847198,23.128389 305.804504,24.124424 308.443970,25.590902 
	C306.872711,26.257378 305.158112,26.002438 304.447540,26.729193 
	C301.686584,29.552999 298.165283,31.845749 296.684235,35.992195 
	C296.294464,36.597759 296.077301,37.652313 296.302124,37.756893 
	C297.516205,38.321693 298.839844,38.651039 300.084839,39.053368 
	C300.044006,39.045151 300.104218,39.102757 299.779968,39.351906 
	C297.728058,39.807674 295.910675,39.756512 294.305511,40.315144 
	C293.301422,40.664585 292.616974,41.932446 291.450104,43.022419 
	C294.863220,43.651085 298.615326,44.045540 303.297913,44.537823 
	C300.460907,45.635437 298.366608,46.445698 297.481750,46.788052 
	C298.138062,49.147861 298.631744,50.923016 299.052979,53.036152 
	C298.322327,54.160851 297.664154,54.947563 297.083313,55.641876 
	C299.013550,56.053795 300.998749,56.477444 302.983948,56.901096 
	C299.153473,58.081612 295.364960,59.435219 291.476837,60.377945 
	C289.130585,60.946823 286.629517,60.877308 284.183136,62.147610 
	C285.498077,62.147610 286.812988,62.147610 288.569550,62.614059 
	C290.721008,63.701332 292.430878,64.322159 294.140717,64.942986 
	C296.237976,66.206390 298.335236,67.469788 300.248718,69.397491 
	C300.038818,70.284424 300.012756,70.507034 299.986664,70.729652 
	C293.299835,71.483086 286.613007,72.236519 279.500305,72.507072 
	C279.088715,71.759979 279.102997,71.495766 279.117249,71.231560 
	C280.136383,70.536438 281.155487,69.841324 282.174622,69.146194 
	C280.410156,67.805252 278.645660,66.464310 276.603699,64.693283 
	C276.319855,63.517105 276.313507,62.771004 276.307129,62.024902 
	C274.504211,62.112698 272.701324,62.200493 270.898407,62.288288 
	C267.928497,62.259464 264.958588,62.230640 261.095612,62.119949 
	C256.844086,62.038082 253.485641,62.038082 250.127182,62.038082 
	C250.173752,62.526615 250.220337,63.015148 250.266907,63.503681 
	C253.465805,63.949223 256.664703,64.394760 259.877075,64.810089 
	C259.890564,64.779884 259.925537,64.723732 259.925537,64.723732 
	C259.280334,66.522621 258.635101,68.321510 257.994141,70.738815 
	C257.998383,71.357239 257.990753,71.827034 257.990753,71.827034 
	C252.454025,72.213081 246.919052,72.707535 241.377533,72.797180 
	C240.888489,72.805084 240.356689,70.168121 240.170059,68.273582 
	C241.015411,66.973595 241.535446,66.159607 242.311707,65.041801 
	C244.688553,63.718750 246.809174,62.699516 248.929794,61.680283 
	C248.884720,61.122093 248.839661,60.563908 248.794586,60.005718 
	C244.199112,60.005718 239.603638,60.005718 234.662994,59.997784 
	C233.857712,59.986229 233.397598,59.982609 233.027267,59.581200 
	C235.189957,58.818447 237.262848,58.453487 239.693207,58.065311 
	C242.028961,57.166920 244.007233,56.291748 245.973907,55.421711 
	C245.018127,54.729710 243.904327,53.850018 242.708328,53.101742 
	C242.346375,52.875278 241.756714,53.012730 241.271362,52.983490 
	C243.334442,48.487881 243.334442,48.487881 237.868652,47.601326 
	C239.482986,46.935005 240.625015,46.454826 241.774063,45.992043 
	C242.755981,45.596569 243.745926,45.221054 244.508041,43.893410 
	C240.690308,43.893410 236.872589,43.893410 233.054871,43.893410 
	C233.003464,43.520130 232.952057,43.146851 232.900650,42.773567 
	C235.914703,42.117508 238.928772,41.461445 242.608765,40.660435 
	C241.493744,39.407711 240.960922,38.809082 240.051361,37.787193 
	C243.199585,37.539017 245.893799,37.326630 248.587997,37.114243 
	C248.599365,36.763981 248.610733,36.413719 248.622101,36.063457 
	C245.872559,35.774334 243.123016,35.485214 240.373489,35.196091 
	C240.393402,34.906151 240.413315,34.616207 240.433243,34.326267 
	C241.564423,34.108894 242.695602,33.891521 243.826797,33.674149 
	C243.799194,33.345444 243.771591,33.016735 243.743988,32.688030 
	C241.708984,32.548309 239.673981,32.408585 237.667526,32.270824 
	C239.587494,27.092913 243.557602,24.839069 251.597092,24.156267 
	C249.749039,23.066101 247.462112,22.536310 245.175186,22.006519 
	C243.674606,21.211956 242.174026,20.417395 240.168350,19.355377 
	C248.115982,18.142538 255.546616,18.896763 262.480835,21.601574 
	C259.748779,22.120327 257.420898,22.244177 255.092987,22.368027 
	C255.124863,22.682753 255.156738,22.997478 255.188599,23.312204 
	C258.507477,23.905897 261.826324,24.499588 265.145203,25.093279 
M275.156952,56.539043 
	C277.720490,59.240719 281.892639,59.095467 285.922852,56.027782 
	C288.297974,55.677483 290.673096,55.327179 293.048218,54.976879 
	C286.940460,55.002384 281.015472,51.251858 274.203674,54.064053 
	C269.665863,54.678169 265.120148,55.241394 260.595551,55.940979 
	C259.415283,56.123478 258.182312,56.561092 257.218842,57.233181 
	C256.872589,57.474739 257.178131,59.434780 257.304749,59.447689 
	C258.447876,59.564217 259.658478,59.593788 260.771973,59.326565 
	C265.604950,58.166706 270.411865,56.898178 275.244476,55.729580 
	C275.244476,55.729580 275.271545,55.786011 275.156952,56.539043 
M255.056595,56.723698 
	C255.032745,56.383904 255.008881,56.044109 254.985031,55.704319 
	C254.746460,55.775845 254.507904,55.847370 254.269333,55.918900 
	C254.387039,56.167011 254.504745,56.415123 255.056595,56.723698 
M274.180389,59.015930 
	C273.627045,59.136780 273.073700,59.257633 272.520355,59.378483 
	C272.580780,59.611496 272.641235,59.844505 272.701691,60.077518 
	C273.336761,59.890862 273.971832,59.704201 274.180389,59.015930 
M251.807220,58.794373 
	C251.604980,58.862766 251.402725,58.931160 251.200485,58.999550 
	C251.403809,59.064655 251.607117,59.129757 251.807220,58.794373 
M266.482727,60.585224 
	C266.482727,60.585224 266.416504,60.472164 266.482727,60.585224 
z"/>
<path fill="#FAFAFA" opacity="1.000000" stroke="none" 
	d="
M414.951355,33.009296 
	C415.337311,32.906754 416.065918,32.873913 416.159851,32.612793 
	C418.051788,27.352423 420.634399,22.965919 426.445953,20.914690 
	C433.508636,18.421875 440.568176,17.285715 447.973755,18.602753 
	C455.503326,19.941845 460.772522,24.502512 464.800293,30.651884 
	C465.350128,31.491308 464.771393,33.069920 464.694305,34.765537 
	C465.926758,37.382339 467.869263,40.679249 468.927338,44.239048 
	C469.260803,45.360893 467.223694,47.187344 465.917480,49.250576 
	C468.198792,55.188461 463.260803,67.716995 455.793854,70.716316 
	C442.701324,75.975342 430.228668,75.222038 419.081207,65.946983 
	C417.438751,64.580429 416.433014,61.921436 416.032745,59.698368 
	C415.184906,54.989643 415.008972,50.163761 414.385590,45.408463 
	C414.201843,44.006969 413.441528,42.681049 412.858795,41.082771 
	C416.788269,40.520214 414.840546,36.677162 415.128418,33.330914 
	C415.067993,32.875744 414.998474,32.972698 414.951355,33.009296 
M446.177795,48.273483 
	C447.111786,46.989609 449.039368,45.463413 448.796265,44.466599 
	C448.020325,41.285145 447.058502,37.727104 444.947449,35.443008 
	C443.563049,33.945103 440.026520,33.975945 437.539551,34.214722 
	C436.703766,34.294971 436.331299,37.263519 435.378387,38.660439 
	C434.584991,39.823547 433.251953,40.618530 432.249603,41.496296 
	C436.187714,43.216396 434.663147,46.837933 434.894806,50.070965 
	C435.125549,53.291153 434.841522,56.961018 439.186554,58.381916 
	C442.471924,59.456268 444.462250,57.740852 445.574066,55.426891 
	C446.436340,53.632359 446.016632,51.221863 446.177795,48.273483 
z"/>
<path fill="#FBFBFB" opacity="1.000000" stroke="none" 
	d="
M84.011353,125.034668 
	C84.251671,126.231285 84.491989,127.427902 84.731674,128.624725 
	C68.554619,132.919617 52.049515,130.334961 35.696465,130.913116 
	C35.020496,130.937027 34.317066,130.184067 32.888023,129.374939 
	C35.733349,129.175461 37.756454,129.033630 39.850296,128.886841 
	C39.850296,125.672539 39.850296,122.574730 39.850296,119.065239 
	C42.797390,119.065239 46.366932,119.065239 51.332222,119.065239 
	C48.705658,117.940010 47.396019,117.378952 46.086380,116.817902 
	C46.228313,116.350563 46.370247,115.883232 46.512177,115.415894 
	C43.484070,115.179291 40.455967,114.942680 36.119568,114.603844 
	C38.425171,112.758072 39.614620,111.805847 40.598682,111.018044 
	C40.303513,104.831558 39.401100,98.741188 40.021538,92.810120 
	C40.281235,90.327515 43.772022,88.182915 45.622856,86.078949 
	C44.642345,86.014137 42.610123,85.879791 40.299957,85.727081 
	C40.299957,82.976227 40.299957,80.253258 40.299957,76.872574 
	C46.839798,76.872574 53.436012,76.872574 60.032227,76.872574 
	C65.355591,76.872574 70.678947,76.872337 76.002312,76.872627 
	C84.460922,76.873085 84.467636,76.880074 84.058945,85.558334 
	C86.098511,85.720451 88.166389,85.884819 90.234566,86.055679 
	C80.775528,91.969025 80.775528,91.969025 66.735764,91.969025 
	C63.966782,91.969025 61.197800,91.969025 57.516392,91.969025 
	C58.646111,93.569778 59.208321,94.366402 59.606789,95.605080 
	C59.633160,96.245026 59.823269,96.442917 60.013374,96.640808 
	C66.125313,96.707642 72.237320,96.828857 78.349174,96.822334 
	C82.474815,96.817932 82.990959,99.491737 82.847389,102.645065 
	C82.737488,105.058777 82.451881,107.464493 82.143250,111.048897 
	C76.571098,111.048897 70.252144,111.048897 63.097214,111.042328 
	C60.121063,111.665863 57.980877,112.295967 54.471081,113.329300 
	C56.679123,114.263878 57.352901,114.549065 58.026684,114.834251 
	C68.047112,115.207695 78.067535,115.581139 88.441101,116.430573 
	C87.815811,117.266655 86.861610,117.832207 85.854729,117.950935 
	C81.708755,118.439781 82.521736,119.991188 84.900032,121.968102 
	C84.934662,122.419006 84.969292,122.869911 84.744919,123.784882 
	C84.242828,124.459572 84.084641,124.721481 84.011353,125.034668 
z"/>
<path fill="#FAFAFA" opacity="1.000000" stroke="none" 
	d="
M238.969284,67.801407 
	C238.642975,68.201988 238.296448,68.587944 237.994049,69.005859 
	C237.036880,70.328743 236.176544,72.735199 235.135635,72.813210 
	C229.889221,73.206413 224.597412,72.993797 218.707352,72.993797 
	C219.007050,70.519524 219.215271,68.800423 219.536636,66.147186 
	C214.234436,66.147186 208.376251,66.116585 202.519730,66.200554 
	C202.006134,66.207924 201.313477,66.862549 201.023651,67.391632 
	C195.691635,77.125679 186.886520,71.569748 178.805542,71.863281 
	C180.141708,69.820351 181.477875,67.777420 182.424377,66.330254 
	C181.765854,64.614220 180.485916,62.871437 180.918854,62.133339 
	C182.868835,58.808895 182.305527,53.014904 188.681824,53.236469 
	C187.567123,52.919003 186.452423,52.601536 184.617020,52.078812 
	C186.078445,51.082088 187.155045,50.347836 188.231644,49.613579 
	C187.788330,49.501568 187.345032,49.389557 186.901718,49.277546 
	C188.086823,46.309814 189.483505,43.397461 190.286362,40.329693 
	C190.455887,39.681892 188.546204,38.327778 187.423096,37.545170 
	C186.038330,36.580246 184.474213,35.872742 182.987595,35.053993 
	C184.703751,34.034653 186.359314,32.888119 188.153748,32.033066 
	C189.825638,31.236408 192.232498,31.231073 193.242844,29.998140 
	C194.362686,28.631578 194.265884,26.268030 194.736816,24.169571 
	C196.542191,24.169571 198.180756,24.169571 200.563309,24.169571 
	C199.702454,23.055702 199.233749,22.449249 198.730072,21.797546 
	C200.791077,18.323092 198.566376,18.925421 212.321625,18.873201 
	C218.109299,18.851231 218.109375,18.869549 225.380432,23.532669 
	C223.871841,23.851217 222.684097,24.102015 220.692413,24.522572 
	C221.637817,26.193754 222.976685,27.648916 223.140366,29.226049 
	C223.224930,30.040924 221.233154,31.084059 220.161316,32.002808 
	C218.954208,33.037502 217.726624,34.048290 216.507950,35.069489 
	C217.868607,35.858566 219.177032,36.769558 220.612289,37.384567 
	C221.315292,37.685802 222.253967,37.437157 223.085968,37.437222 
	C224.220840,37.437309 225.355728,37.437244 225.483871,37.437244 
	C227.475830,42.579582 229.229492,47.106777 231.261276,52.351913 
	C231.757385,52.477840 233.305145,52.870697 234.520233,53.644173 
	C229.310715,54.417904 232.108337,57.606346 232.068817,60.066746 
	C232.262665,60.876526 232.482346,61.390377 232.894073,62.229462 
	C234.715622,63.392250 236.345108,64.229805 237.996262,65.363281 
	C238.335052,66.373260 238.652161,67.087334 238.969284,67.801407 
M207.107239,37.936100 
	C207.107239,37.936100 206.901825,37.838009 206.901825,37.838009 
	C206.901825,37.838009 207.135040,37.831104 207.474045,38.468880 
	C207.595337,39.320953 208.029419,40.281269 207.779083,41.004745 
	C207.037872,43.146770 205.823135,45.137772 205.209824,47.305595 
	C204.919586,48.331501 205.450195,50.588120 205.827652,50.638195 
	C207.880341,50.910553 210.012909,50.748589 212.075882,50.447617 
	C212.235519,50.424332 212.375565,48.075413 211.998154,46.990623 
	C211.028656,44.203979 209.811966,41.497684 208.570908,38.816288 
	C208.342957,38.323826 207.535339,38.099651 207.107239,37.936100 
z"/>
<path fill="#F9F9F9" opacity="1.000000" stroke="none" 
	d="
M142.852753,106.668106 
	C146.019165,106.628464 145.986938,106.617012 147.432831,102.548370 
	C147.567184,102.170288 148.457794,102.076385 148.979980,101.815910 
	C149.411942,101.600433 149.818390,101.333778 151.243607,100.501472 
	C148.855392,100.086029 147.692688,99.883766 146.416595,99.661781 
	C146.416595,97.518929 146.416595,95.322227 146.416595,93.776382 
	C136.911560,92.560303 127.324455,91.333725 117.347778,89.797195 
	C116.958214,89.487251 116.992096,89.002480 117.375534,89.004585 
	C118.967003,88.895195 120.175049,88.783699 121.666481,88.646042 
	C120.998878,87.185478 120.499550,86.093048 120.000214,85.000618 
	C119.685356,83.283272 119.370506,81.565926 119.052803,79.832970 
	C126.081512,75.864403 133.828827,76.913307 141.422852,76.877197 
	C149.203659,76.840195 156.984787,76.868996 165.310364,76.868996 
	C162.755936,80.307312 168.806015,87.087288 159.221603,86.544609 
	C159.387344,86.954796 159.553085,87.364983 159.718811,87.775169 
	C162.020630,89.191330 164.322449,90.607491 167.266541,92.418800 
	C168.350830,94.379486 162.802505,99.754463 170.005615,100.155899 
	C167.709427,105.097992 164.209991,108.667488 158.359406,109.968178 
	C161.811691,111.233887 164.660370,112.278297 167.509048,113.322708 
	C167.370483,113.786903 167.231918,114.251091 167.093338,114.715279 
	C165.908203,115.032028 164.723068,115.348778 163.537933,115.665527 
	C163.520172,115.913719 163.502396,116.161911 163.484634,116.410103 
	C164.878342,116.657631 166.272049,116.905159 167.798767,117.176308 
	C165.979401,119.310722 160.044739,118.742851 163.809753,124.576004 
	C157.946198,126.910736 152.356094,129.739655 146.434647,131.350586 
	C137.920029,133.666962 130.206223,129.554672 122.382759,126.951546 
	C122.328796,122.917610 119.172829,122.367882 116.282158,121.520164 
	C116.793724,120.244415 117.305298,118.968658 117.954315,117.350159 
	C116.884415,117.125221 115.713867,116.879120 114.553261,116.635109 
	C116.967735,114.091217 118.118668,110.030968 123.259972,110.913933 
	C127.305351,111.608673 131.558121,111.095764 136.298523,111.503471 
	C137.231750,113.356773 137.585251,114.825897 138.026230,116.658615 
	C140.827408,115.998688 143.637177,115.336731 146.868332,114.575508 
	C144.962708,110.731285 141.500504,111.073044 138.285553,110.879822 
	C138.707321,110.325645 139.129074,109.771469 140.110474,109.114197 
	C141.117844,108.957367 141.565613,108.903618 142.279984,108.893524 
	C142.632126,108.633141 142.717636,108.329109 142.877228,107.688087 
	C142.918472,107.123428 142.885605,106.895767 142.852753,106.668106 
z"/>
<path fill="#F7F7F7" opacity="1.000000" stroke="none" 
	d="
M119.671631,85.231834 
	C120.499550,86.093048 120.998878,87.185478 121.666481,88.646042 
	C120.175049,88.783699 118.967003,88.895195 116.965637,88.971291 
	C113.863861,89.508186 111.555397,90.080482 107.887535,90.989792 
	C110.780670,91.457115 112.394814,91.717842 114.008957,91.978569 
	C114.016197,92.435364 114.023445,92.892159 114.103241,93.927475 
	C114.223740,94.673988 114.271683,94.841972 114.319626,95.009949 
	C113.665817,95.496902 113.012009,95.983849 111.848419,96.750885 
	C110.986000,97.387939 110.633362,97.744896 110.280731,98.101852 
	C110.863113,98.153931 111.445488,98.206017 112.027870,98.258095 
	C112.397476,98.599297 112.767082,98.940498 113.086151,99.886154 
	C113.353333,100.573128 113.671051,100.655655 113.988754,100.738190 
	C114.004814,101.284935 114.072304,102.305389 114.029488,102.310043 
	C112.441345,102.482491 110.842995,102.560982 109.939415,102.612625 
	C110.671432,104.917038 111.686516,106.984062 111.944016,109.141502 
	C112.629784,114.887215 112.968430,120.673752 113.486626,126.440315 
	C113.788406,129.798492 111.710770,130.752197 108.980392,130.797806 
	C103.523308,130.888977 98.063644,130.824860 93.283249,130.824860 
	C92.879265,127.456360 92.508469,124.364578 92.044983,120.499977 
	C89.618340,120.982491 87.666626,121.370575 85.307465,121.863380 
	C82.521736,119.991188 81.708755,118.439781 85.854729,117.950935 
	C86.861610,117.832207 87.815811,117.266655 88.893906,116.557770 
	C89.680443,116.583084 90.367294,116.957191 91.055786,117.328293 
	C93.153976,110.694511 92.424294,105.551872 88.398895,102.914062 
	C90.793297,102.578094 92.616028,102.322334 95.130913,101.969452 
	C93.264450,100.331848 91.753151,99.005859 90.720657,98.099968 
	C91.997475,96.441299 93.327179,94.713921 95.298843,92.152596 
	C92.270302,91.816139 90.743103,91.646469 89.215897,91.476807 
	C89.169334,91.132034 89.122780,90.787262 89.076218,90.442490 
	C90.481720,90.230698 91.887222,90.018913 93.430832,89.786316 
	C92.875885,86.490486 92.057014,83.116730 91.903320,79.712952 
	C91.862671,78.812714 93.829987,77.060356 94.946655,76.999046 
	C100.228531,76.709068 105.535156,76.869644 110.867912,76.869644 
	C112.787872,80.824692 110.911140,88.423553 119.671631,85.231834 
z"/>
<path fill="#F8F8F8" opacity="1.000000" stroke="none" 
	d="
M175.682648,99.225616 
	C174.694626,98.708786 173.915802,98.527130 173.051132,98.325455 
	C174.604263,96.579819 176.067001,94.935776 178.153427,92.590759 
	C175.182526,91.922333 173.552307,91.555542 171.922104,91.188759 
	C171.942764,90.925209 171.963425,90.661652 171.984100,90.398094 
	C173.164246,90.199509 174.344391,90.000923 175.904495,89.738403 
	C175.690186,87.694145 175.950912,85.380684 175.151871,83.523094 
	C173.284195,79.181206 174.299042,76.953651 178.838089,76.884209 
	C183.812042,76.808113 188.788055,76.866882 193.832779,76.866882 
	C194.753647,81.233910 195.592911,85.213921 196.508011,89.553513 
	C194.708099,89.904305 193.387924,90.161591 192.067734,90.418884 
	C192.048889,90.649345 192.030029,90.879807 192.011185,91.110260 
	C193.508240,91.421036 195.005280,91.731812 197.829605,92.318123 
	C196.284531,94.543312 195.040939,96.334312 193.764114,98.173172 
	C194.641891,98.921196 196.185455,100.236610 198.187485,101.942696 
	C195.874557,102.251999 194.014908,102.500687 193.263199,102.601212 
	C193.879623,105.465614 194.732956,108.087891 194.956375,110.762787 
	C195.358566,115.577713 194.719498,120.574135 195.767288,125.211906 
	C196.669693,129.206268 195.404327,130.610123 192.054092,130.748230 
	C186.444641,130.979462 180.818726,130.811432 174.967880,130.811432 
	C174.967880,122.451591 175.063751,114.327766 174.862152,106.211327 
	C174.832687,105.024986 173.385635,103.873840 172.610718,102.730293 
	C173.608246,102.575241 175.437134,102.290962 177.331970,101.996429 
	C176.828430,101.144821 176.360138,100.352814 175.682648,99.225616 
z"/>
<path fill="#101010" opacity="1.000000" stroke="none" 
	d="
M299.125458,52.698166 
	C298.631744,50.923016 298.138062,49.147861 297.481750,46.788052 
	C298.366608,46.445698 300.460907,45.635437 303.297913,44.537823 
	C298.615326,44.045540 294.863220,43.651085 291.902679,43.001244 
	C294.460297,42.746979 296.226654,42.727589 297.992371,42.753860 
	C300.899567,42.797115 301.237213,41.382065 300.104218,39.102757 
	C300.104218,39.102757 300.044006,39.045151 300.383911,38.885696 
	C301.362091,37.637741 302.000336,36.549240 303.024750,34.802208 
	C300.484436,35.313568 298.772644,35.658154 297.060852,36.002735 
	C298.165283,31.845749 301.686584,29.552999 304.447540,26.729193 
	C305.158112,26.002438 306.872711,26.257378 308.528503,25.953739 
	C309.166107,26.152252 309.401276,26.458372 309.886475,26.915062 
	C309.081635,30.782831 308.202423,34.564213 306.879852,38.183571 
	C306.395294,39.509533 304.859802,40.451458 303.763947,41.610672 
	C308.235504,42.357616 305.612640,46.413933 306.411377,49.129791 
	C306.791260,50.421471 306.762177,51.833424 306.619934,53.751228 
	C303.922852,53.773762 301.524170,53.235962 299.125458,52.698166 
z"/>
<path fill="#141414" opacity="1.000000" stroke="none" 
	d="
M129.467712,37.072685 
	C128.933289,36.213089 128.766983,35.364700 128.251923,34.170826 
	C127.903145,33.825344 128.138809,33.836037 128.138809,33.836037 
	C128.138809,33.836037 127.944344,33.926445 127.944344,33.926445 
	C126.638359,33.709660 125.332375,33.492874 124.026390,33.276085 
	C124.009125,32.987671 123.991867,32.699257 123.974602,32.410843 
	C125.068642,32.282433 126.162689,32.154026 128.129456,32.054802 
	C131.527222,31.972343 134.052246,31.860697 136.577286,31.749050 
	C137.145599,32.841843 137.713913,33.934635 138.210022,35.344040 
	C137.288498,36.222752 136.476898,37.179691 135.582062,37.265182 
	C133.689697,37.445976 131.753860,37.171581 129.467712,37.072685 
z"/>
<path fill="#999999" opacity="1.000000" stroke="none" 
	d="
M43.506912,21.990593 
	C46.482819,21.865906 49.005123,21.735191 51.483585,21.606750 
	C50.414185,25.172102 50.414185,25.172102 44.593777,25.131039 
	C41.124569,24.498606 38.076786,23.899319 35.029003,23.300030 
	C35.005589,22.861542 34.982178,22.423054 34.958763,21.984566 
	C37.656944,21.984566 40.355129,21.984566 43.506912,21.990593 
z"/>
<path fill="#6F6F6F" opacity="1.000000" stroke="none" 
	d="
M64.807045,24.997154 
	C60.821201,24.404430 57.272938,23.854959 53.724670,23.305487 
	C53.722408,22.870092 53.720146,22.434700 53.717884,21.999306 
	C56.176594,21.999306 58.635307,21.999306 61.528542,21.998814 
	C64.726952,22.721336 68.341110,20.398920 71.134743,25.040407 
	C68.573761,25.040407 66.909195,25.040407 64.807045,24.997154 
z"/>
<path fill="#080808" opacity="1.000000" stroke="none" 
	d="
M137.865173,110.946182 
	C141.500504,111.073044 144.962708,110.731285 146.868332,114.575508 
	C143.637177,115.336731 140.827408,115.998688 138.026230,116.658615 
	C137.585251,114.825897 137.231750,113.356773 136.741852,111.520836 
	C136.885223,111.106865 137.165009,111.059700 137.865173,110.946182 
z"/>
<path fill="#6F6F6F" opacity="1.000000" stroke="none" 
	d="
M265.528015,25.037203 
	C261.826324,24.499588 258.507477,23.905897 255.188599,23.312204 
	C255.156738,22.997478 255.124863,22.682753 255.092987,22.368027 
	C257.420898,22.244177 259.748779,22.120327 262.520020,21.997343 
	C265.582062,21.998207 268.200806,21.998207 270.819519,21.998207 
	C270.854004,22.417282 270.888489,22.836355 270.922974,23.255430 
	C269.252258,23.830662 267.581573,24.405895 265.528015,25.037203 
z"/>
<path fill="#999999" opacity="1.000000" stroke="none" 
	d="
M244.710327,21.996342 
	C247.462112,22.536310 249.749039,23.066101 251.888672,23.914852 
	C246.537918,24.233812 241.334427,24.233812 236.130951,24.233812 
	C236.119659,23.484596 236.108353,22.735380 236.097061,21.986164 
	C238.813187,21.986164 241.529327,21.986164 244.710327,21.996342 
z"/>
<path fill="#141414" opacity="1.000000" stroke="none" 
	d="
M232.094681,59.770817 
	C232.108337,57.606346 229.310715,54.417904 234.556229,53.999722 
	C235.484268,54.255962 236.043671,54.537266 236.808929,55.320091 
	C237.788437,56.577251 238.562088,57.332893 239.335739,58.088531 
	C237.262848,58.453487 235.189957,58.818447 232.812531,59.545479 
	C232.508011,59.907555 232.094681,59.770817 232.094681,59.770817 
z"/>
<path fill="#D3D3D3" opacity="1.000000" stroke="none" 
	d="
M41.593060,62.161301 
	C41.713882,63.191891 41.380379,64.117126 40.727921,65.054535 
	C37.256340,64.491165 34.103710,63.915619 30.951082,63.340076 
	C30.946011,62.912037 30.940939,62.483994 30.935867,62.055950 
	C34.336823,62.055950 37.737774,62.055950 41.593060,62.161301 
z"/>
<path fill="#999999" opacity="1.000000" stroke="none" 
	d="
M79.757034,21.996977 
	C82.636116,22.505442 85.109886,23.003891 87.336060,23.744234 
	C83.534340,23.986130 79.980225,23.986130 76.426102,23.986130 
	C76.360886,23.571533 76.295670,23.156937 76.230453,22.742342 
	C77.270882,22.490547 78.311310,22.238752 79.757034,21.996977 
z"/>
<path fill="#494949" opacity="1.000000" stroke="none" 
	d="
M58.460670,64.983032 
	C55.125504,64.492577 52.102394,63.928555 49.079285,63.364536 
	C49.070915,62.925098 49.062542,62.485664 49.054173,62.046230 
	C52.436157,62.046230 55.818142,62.046230 59.652847,62.169930 
	C59.661293,63.165573 59.217010,64.037514 58.460670,64.983032 
z"/>
<path fill="#EFEFEF" opacity="1.000000" stroke="none" 
	d="
M239.693207,58.065315 
	C238.562088,57.332893 237.788437,56.577251 237.093842,55.451466 
	C238.602829,54.622448 240.032761,54.163578 241.367035,53.344101 
	C241.756714,53.012730 242.346375,52.875278 242.708328,53.101742 
	C243.904327,53.850018 245.018127,54.729710 245.973907,55.421711 
	C244.007233,56.291748 242.028961,57.166920 239.693207,58.065315 
z"/>
<path fill="#7B7B7B" opacity="1.000000" stroke="none" 
	d="
M274.713898,31.076393 
	C274.561554,32.049728 274.030365,32.958935 273.371674,33.763763 
	C272.851685,34.399055 272.174805,34.905922 270.549469,36.415386 
	C269.990295,35.465881 269.248779,34.206688 268.272797,32.726730 
	C270.118927,31.993067 272.199493,31.480160 274.713898,31.076393 
z"/>
<path fill="#999999" opacity="1.000000" stroke="none" 
	d="
M281.511536,21.970991 
	C284.234833,22.433136 286.527985,22.871197 288.648438,23.608576 
	C284.977844,23.907894 281.479889,23.907894 277.981934,23.907894 
	C277.933289,23.465460 277.884644,23.023026 277.835999,22.580591 
	C278.917786,22.369364 279.999603,22.158134 281.511536,21.970991 
z"/>
<path fill="#494949" opacity="1.000000" stroke="none" 
	d="
M259.863617,64.840302 
	C256.664703,64.394760 253.465805,63.949223 250.266907,63.503681 
	C250.220337,63.015148 250.173752,62.526615 250.127182,62.038082 
	C253.485641,62.038082 256.844086,62.038082 260.652588,62.163040 
	C261.062408,62.737782 261.022217,63.187569 260.621857,64.057098 
	C260.128998,64.597992 259.996307,64.719147 259.863617,64.840302 
z"/>
<path fill="#EFEFEF" opacity="1.000000" stroke="none" 
	d="
M299.052979,53.036152 
	C301.524170,53.235962 303.922852,53.773762 306.638550,54.101929 
	C306.972687,54.682419 306.989838,55.472534 306.993378,56.657787 
	C305.913208,57.033459 304.846649,57.013992 303.382019,56.947811 
	C300.998749,56.477444 299.013550,56.053795 297.083313,55.641876 
	C297.664154,54.947563 298.322327,54.160851 299.052979,53.036152 
z"/>
<path fill="#EFEFEF" opacity="1.000000" stroke="none" 
	d="
M294.178162,64.594498 
	C292.430878,64.322159 290.721008,63.701332 288.996429,62.699852 
	C290.901489,62.271198 292.821259,62.223194 294.741058,62.175194 
	C294.565918,62.865459 294.390747,63.555733 294.178162,64.594498 
z"/>
<path fill="#494949" opacity="1.000000" stroke="none" 
	d="
M270.935791,62.681164 
	C272.701324,62.200493 274.504211,62.112698 276.307129,62.024902 
	C276.313507,62.771004 276.319855,63.517105 276.244629,64.580780 
	C274.433075,64.290253 272.703156,63.682144 270.935791,62.681164 
z"/>
<path fill="#0A0A0A" opacity="1.000000" stroke="none" 
	d="
M58.298599,114.603821 
	C57.352901,114.549065 56.679123,114.263878 54.471081,113.329300 
	C57.980877,112.295967 60.121063,111.665863 62.634651,111.117432 
	C63.370781,114.832123 60.289925,113.651131 58.298599,114.603821 
z"/>
<path fill="#7B7B7B" opacity="1.000000" stroke="none" 
	d="
M62.001434,31.843891 
	C61.153675,32.244205 60.324619,32.255726 59.495560,32.267246 
	C60.055508,31.164001 60.615452,30.060757 61.533890,28.976826 
	C63.169685,28.787075 64.446991,28.578011 66.532257,28.236700 
	C64.514954,29.675602 63.267544,30.565350 62.001434,31.843891 
z"/>
<path fill="#494949" opacity="1.000000" stroke="none" 
	d="
M69.927383,62.674149 
	C71.481598,62.204559 73.076363,62.003750 74.646049,62.125687 
	C74.941124,62.148605 75.136162,63.459507 75.257393,64.545296 
	C73.411369,64.294571 71.685310,63.674618 69.927383,62.674149 
z"/>
<path fill="#080808" opacity="1.000000" stroke="none" 
	d="
M114.203995,91.734573 
	C112.394814,91.717842 110.780670,91.457115 107.887535,90.989792 
	C111.555397,90.080482 113.863861,89.508186 116.582207,88.969185 
	C116.992096,89.002480 116.958214,89.487251 116.984467,89.728806 
	C116.140152,90.477104 115.269592,90.983841 114.203995,91.734573 
z"/>
<path fill="#7B7B7B" opacity="1.000000" stroke="none" 
	d="
M73.650719,31.027201 
	C71.963264,31.774128 69.832199,32.434807 67.398331,32.882835 
	C69.132721,32.093777 71.169922,31.517365 73.650719,31.027201 
z"/>
<path fill="#7B7B7B" opacity="1.000000" stroke="none" 
	d="
M263.067383,31.766783 
	C262.228851,32.177151 261.470123,32.226650 260.711365,32.276146 
	C261.206421,31.172529 261.701447,30.068913 262.548584,28.980850 
	C264.016144,29.091480 265.131592,29.186562 265.915039,29.253340 
	C265.073669,29.907665 264.110413,30.656790 263.067383,31.766783 
z"/>
<path fill="#EFEFEF" opacity="1.000000" stroke="none" 
	d="
M239.207275,67.872070 
	C238.652161,67.087334 238.335052,66.373260 238.405609,65.371750 
	C239.880676,65.171417 240.968094,65.258522 242.055496,65.345619 
	C241.535446,66.159607 241.015411,66.973595 240.215118,67.906448 
	C239.934875,68.025322 239.445282,67.942734 239.207275,67.872070 
z"/>
<path fill="#080808" opacity="1.000000" stroke="none" 
	d="
M142.013367,108.849876 
	C141.565613,108.903618 141.117844,108.957367 140.333496,108.960159 
	C140.791458,108.019928 141.585999,107.130638 142.616653,106.454727 
	C142.885605,106.895767 142.918472,107.123428 142.706970,107.785004 
	C142.249191,108.383881 142.099426,108.594208 142.013367,108.849876 
z"/>
<path fill="#080808" opacity="1.000000" stroke="none" 
	d="
M114.713440,95.022095 
	C114.271683,94.841972 114.223740,94.673988 114.223495,94.248344 
	C116.159157,93.990685 118.047127,93.990685 119.935104,93.990685 
	C119.939644,94.338531 119.944191,94.686386 119.948730,95.034233 
	C118.334908,95.034233 116.721077,95.034233 114.713440,95.022095 
z"/>
<path fill="#EFEFEF" opacity="1.000000" stroke="none" 
	d="
M278.796722,71.143867 
	C279.102997,71.495766 279.088715,71.759979 279.044800,72.419998 
	C278.357605,72.621559 277.700012,72.427338 277.042450,72.233109 
	C277.520355,71.840797 277.998291,71.448486 278.796722,71.143867 
z"/>
<path fill="#080808" opacity="1.000000" stroke="none" 
	d="
M112.029984,98.051109 
	C111.445488,98.206017 110.863113,98.153931 110.280731,98.101852 
	C110.633362,97.744896 110.986000,97.387939 111.669647,97.023888 
	C112.009300,97.292641 112.019775,97.568420 112.029984,98.051109 
z"/>
<path fill="#EFEFEF" opacity="1.000000" stroke="none" 
	d="
M258.319977,71.900375 
	C257.990753,71.827034 257.998383,71.357239 258.021698,71.123474 
	C258.623383,71.081543 259.201721,71.273384 259.780090,71.465225 
	C259.403137,71.634720 259.026154,71.804214 258.319977,71.900375 
z"/>
<path fill="#EFEFEF" opacity="1.000000" stroke="none" 
	d="
M300.229553,70.799583 
	C300.012756,70.507034 300.038818,70.284424 300.157349,69.738052 
	C300.323975,69.899376 300.398224,70.384445 300.229553,70.799583 
z"/>
<path fill="#F7F7F7" opacity="1.000000" stroke="none" 
	d="
M84.308716,125.035416 
	C84.084641,124.721481 84.242828,124.459572 84.685654,124.129913 
	C84.792290,124.352631 84.699181,124.694405 84.308716,125.035416 
z"/>
<path fill="#080808" opacity="1.000000" stroke="none" 
	d="
M113.922989,100.580917 
	C113.671051,100.655655 113.353333,100.573128 113.179138,100.255768 
	C113.552467,100.086655 113.730652,100.220886 113.922989,100.580917 
z"/>
<path fill="#0A0A0A" opacity="1.000000" stroke="none" 
	d="
M60.012665,96.448151 
	C59.823269,96.442917 59.633160,96.245026 59.695892,95.961258 
	C59.948738,95.875389 60.011951,96.255493 60.012665,96.448151 
z"/>
<path fill="#EFEFEF" opacity="1.000000" stroke="none" 
	d="
M259.877075,64.810097 
	C259.996307,64.719147 260.128998,64.597992 260.513062,64.379639 
	C260.699432,64.541916 260.538849,64.710136 260.104095,64.755417 
	C259.925537,64.723732 259.890564,64.779884 259.877075,64.810097 
z"/>
<path fill="#141414" opacity="1.000000" stroke="none" 
	d="
M97.491493,44.052284 
	C94.506874,44.052280 91.937973,44.052280 89.369072,44.052280 
	C89.314178,43.778225 89.259293,43.504166 89.204399,43.230110 
	C92.483925,42.095757 95.763451,40.961399 99.042976,39.827045 
	C98.921883,39.260632 98.800797,38.694214 98.679703,38.127800 
	C97.323303,37.788757 95.966904,37.449715 93.591324,36.855919 
	C95.605118,36.369755 96.680580,36.110119 97.780579,35.844555 
	C96.313423,33.705627 97.588356,30.142666 100.000610,29.236612 
	C101.167725,28.798244 102.183228,27.956232 102.833145,26.215607 
	C104.453918,26.215607 106.074692,26.215607 107.865021,26.215607 
	C107.865021,27.945635 107.865021,29.573286 107.865021,31.608540 
	C106.775177,31.846571 105.456711,32.134537 103.313133,32.602715 
	C108.816177,34.357536 112.734009,36.315628 104.909058,39.552296 
	C106.515076,40.941944 108.020119,42.244217 110.010399,43.966358 
	C107.626793,44.287842 105.776878,44.537346 105.266609,44.606167 
	C105.839043,47.636669 107.477257,52.124294 106.639832,52.647194 
	C103.939941,54.333050 100.328140,54.558475 96.858803,54.312038 
	C96.891045,54.295097 96.942505,54.285839 96.952789,54.260113 
	C97.644562,52.530804 98.333023,50.800159 99.155312,48.734093 
	C97.945312,48.384621 96.653961,48.011650 94.287598,47.328197 
	C97.104713,46.320534 99.069366,45.617790 101.034012,44.915051 
	C101.017525,44.627460 101.001030,44.339874 100.984535,44.052284 
	C99.958755,44.052284 98.932983,44.052284 97.491493,44.052284 
z"/>
<path fill="#272727" opacity="1.000000" stroke="none" 
	d="
M136.411652,31.421417 
	C134.052246,31.860697 131.527222,31.972343 128.537628,32.056358 
	C128.436890,30.990063 128.533234,29.307400 129.211456,29.025719 
	C131.948868,27.888792 134.472183,28.461910 136.411652,31.421417 
z"/>
<path fill="#494949" opacity="1.000000" stroke="none" 
	d="
M59.043144,57.896946 
	C56.100048,58.435211 53.156960,58.973476 50.213867,59.511742 
	C50.160275,59.163853 50.106678,58.815960 50.053082,58.468071 
	C51.845852,58.282356 53.638622,58.096638 55.615921,57.891808 
	C55.163723,57.290417 54.769512,56.766140 54.271152,56.103359 
	C55.662582,56.036507 56.954941,55.974415 58.562923,56.292030 
	C58.933411,57.080139 58.988277,57.488541 59.043144,57.896946 
z"/>
<path fill="#020202" opacity="1.000000" stroke="none" 
	d="
M59.413418,57.936569 
	C58.988277,57.488541 58.933411,57.080139 58.953979,56.369953 
	C59.683964,56.326176 60.338509,56.584179 60.993053,56.842186 
	C60.589931,57.220188 60.186810,57.598190 59.413418,57.936569 
z"/>
<path fill="#0D0D0D" opacity="1.000000" stroke="none" 
	d="
M332.326904,33.130600 
	C333.633453,33.787388 334.657013,34.384937 335.563782,35.125465 
	C336.320496,35.743465 336.963562,36.508492 337.616455,37.244320 
	C339.255859,39.092033 336.857391,42.854820 340.662811,43.686073 
	C339.760284,45.411949 338.857758,47.137825 337.983459,48.809750 
	C338.212799,48.873180 338.835846,49.045506 339.350922,49.187958 
	C338.812592,50.342434 338.048859,51.443214 337.781891,52.653572 
	C336.978607,56.295353 335.904205,59.495949 331.124664,58.413902 
	C328.036163,57.714695 326.060272,53.204021 326.307068,49.394459 
	C326.488220,46.597687 328.259888,42.712536 324.121643,41.768539 
	C325.059174,40.352470 325.943695,38.594727 327.222656,37.198219 
	C328.622894,35.669266 330.387451,34.473965 332.326904,33.130600 
z"/>
<path fill="#141414" opacity="1.000000" stroke="none" 
	d="
M355.271667,28.745857 
	C358.460114,27.608580 362.002960,28.825451 365.364319,32.186630 
	C361.393829,32.341312 357.531830,33.806736 355.271667,28.745857 
z"/>
<path fill="#D3D3D3" opacity="1.000000" stroke="none" 
	d="
M242.311707,65.041801 
	C240.968094,65.258522 239.880676,65.171417 238.383942,65.075836 
	C236.345108,64.229805 234.715622,63.392250 233.205811,62.160702 
	C233.886383,61.179710 234.447281,60.592716 235.008163,60.005718 
	C239.603638,60.005718 244.199112,60.005718 248.794586,60.005718 
	C248.839661,60.563908 248.884720,61.122093 248.929794,61.680283 
	C246.809174,62.699516 244.688553,63.718750 242.311707,65.041801 
z"/>
<path fill="#D3D3D3" opacity="1.000000" stroke="none" 
	d="
M275.228241,55.669159 
	C270.411865,56.898178 265.604950,58.166706 260.771973,59.326565 
	C259.658478,59.593788 258.447876,59.564217 257.304749,59.447689 
	C257.178131,59.434780 256.872589,57.474739 257.218842,57.233181 
	C258.182312,56.561092 259.415283,56.123478 260.595551,55.940979 
	C265.120148,55.241394 269.665863,54.678169 274.587708,54.324142 
	C275.057220,54.945873 275.142731,55.307514 275.228241,55.669159 
z"/>
<path fill="#999999" opacity="1.000000" stroke="none" 
	d="
M275.236359,55.699371 
	C275.142731,55.307514 275.057220,54.945873 275.000366,54.304619 
	C281.015472,51.251858 286.940460,55.002384 293.048218,54.976879 
	C290.673096,55.327179 288.297974,55.677483 285.056824,56.082359 
	C281.217682,56.019962 278.244629,55.902988 275.271545,55.786011 
	C275.271545,55.786011 275.244476,55.729580 275.236359,55.699371 
z"/>
<path fill="#6F6F6F" opacity="1.000000" stroke="none" 
	d="
M299.779968,39.351906 
	C301.237213,41.382065 300.899567,42.797115 297.992371,42.753860 
	C296.226654,42.727589 294.460297,42.746979 292.241638,42.767029 
	C292.616974,41.932446 293.301422,40.664585 294.305511,40.315144 
	C295.910675,39.756512 297.728058,39.807674 299.779968,39.351906 
z"/>
<path fill="#D3D3D3" opacity="1.000000" stroke="none" 
	d="
M275.214233,56.162529 
	C278.244629,55.902988 281.217682,56.019962 284.649658,56.164761 
	C281.892639,59.095467 277.720490,59.240719 275.214233,56.162529 
z"/>
<path fill="#6F6F6F" opacity="1.000000" stroke="none" 
	d="
M296.684235,35.992195 
	C298.772644,35.658154 300.484436,35.313568 303.024750,34.802208 
	C302.000336,36.549240 301.362091,37.637741 300.424774,38.893909 
	C298.839844,38.651039 297.516205,38.321693 296.302124,37.756893 
	C296.077301,37.652313 296.294464,36.597759 296.684235,35.992195 
z"/>
<path fill="#EFEFEF" opacity="1.000000" stroke="none" 
	d="
M234.662994,59.997784 
	C234.447281,60.592716 233.886383,61.179710 233.013763,61.835464 
	C232.482346,61.390377 232.262665,60.876526 232.068817,60.066746 
	C232.094681,59.770817 232.508011,59.907555 232.722748,59.943275 
	C233.397598,59.982609 233.857712,59.986229 234.662994,59.997784 
z"/>
<path fill="#EFEFEF" opacity="1.000000" stroke="none" 
	d="
M254.839523,56.693466 
	C254.504745,56.415123 254.387039,56.167011 254.269333,55.918900 
	C254.507904,55.847370 254.746460,55.775845 254.985016,55.704315 
	C255.008881,56.044109 255.032745,56.383904 254.839523,56.693466 
z"/>
<path fill="#D3D3D3" opacity="1.000000" stroke="none" 
	d="
M274.393646,59.266739 
	C273.971832,59.704201 273.336761,59.890862 272.701691,60.077518 
	C272.641235,59.844505 272.580780,59.611496 272.520355,59.378483 
	C273.073700,59.257633 273.627045,59.136780 274.393646,59.266739 
z"/>
<path fill="#EFEFEF" opacity="1.000000" stroke="none" 
	d="
M251.808838,58.994614 
	C251.607117,59.129757 251.403809,59.064655 251.200485,58.999550 
	C251.402725,58.931160 251.604980,58.862766 251.808838,58.994614 
z"/>
<path fill="#EFEFEF" opacity="1.000000" stroke="none" 
	d="
M266.449615,60.528694 
	C266.416504,60.472164 266.482727,60.585224 266.449615,60.528694 
z"/>
<path fill="#0A0A0A" opacity="1.000000" stroke="none" 
	d="
M446.172302,48.679325 
	C446.016632,51.221863 446.436340,53.632359 445.574066,55.426891 
	C444.462250,57.740852 442.471924,59.456268 439.186554,58.381916 
	C434.841522,56.961018 435.125549,53.291153 434.894806,50.070965 
	C434.663147,46.837933 436.187714,43.216396 432.249603,41.496296 
	C433.251953,40.618530 434.584991,39.823547 435.378387,38.660439 
	C436.331299,37.263519 436.703766,34.294971 437.539551,34.214722 
	C440.026520,33.975945 443.563049,33.945103 444.947449,35.443008 
	C447.058502,37.727104 448.020325,41.285145 448.796265,44.466599 
	C449.039368,45.463413 447.111786,46.989609 446.172302,48.679325 
z"/>
<path fill="#272727" opacity="1.000000" stroke="none" 
	d="
M206.995300,37.751633 
	C207.535339,38.099651 208.342957,38.323826 208.570908,38.816288 
	C209.811966,41.497684 211.028656,44.203979 211.998154,46.990623 
	C212.375565,48.075413 212.235519,50.424332 212.075882,50.447617 
	C210.012909,50.748589 207.880341,50.910553 205.827652,50.638195 
	C205.450195,50.588120 204.919586,48.331501 205.209824,47.305595 
	C205.823135,45.137772 207.037872,43.146770 207.779083,41.004745 
	C208.029419,40.281269 207.595337,39.320953 207.261139,38.145027 
	C207.048218,37.821171 206.995300,37.751633 206.995300,37.751633 
z"/>
<path fill="#272727" opacity="1.000000" stroke="none" 
	d="
M207.091629,37.826138 
	C207.135040,37.831104 206.901825,37.838009 206.901825,37.838009 
	C206.901825,37.838009 207.107239,37.936100 207.051270,37.843864 
	C206.995300,37.751633 207.048218,37.821171 207.091629,37.826138 
z"/>
<path fill="#020202" opacity="1.000000" stroke="none" 
	d="
M142.279984,108.893524 
	C142.099426,108.594208 142.249191,108.383881 142.632889,108.121994 
	C142.717636,108.329109 142.632126,108.633141 142.279984,108.893524 
z"/>
<path fill="#F7F7F7" opacity="1.000000" stroke="none" 
	d="
M127.943161,33.943699 
	C127.944344,33.926445 128.138809,33.836037 128.138809,33.836037 
	C128.138809,33.836037 127.903145,33.825344 127.910789,33.896957 
	C127.918434,33.968571 127.941986,33.960953 127.943161,33.943699 
z"/>
</svg>